<?xml version="1.0"?>
<svg xmlns="http://www.w3.org/2000/svg" width="26" height="26" viewBox="0 0 26 26">
    <path d="M 13 0.15625 C 5.9141455 0.15625 0.15625 5.9141455 0.15625 13 C 0.15625 20.085855 5.9141455 25.84375 13 25.84375 C 20.085855 25.84375 25.84375 20.085855 25.84375 13 C 25.84375 5.9141455 20.085855 0.15625 13 0.15625 z M 13 1.78125 C 15.118661 1.78125 17.092997 2.3592147 18.78125 3.375 C 18.793374 3.3822947 18.800406 3.3989108 18.8125 3.40625 C 18.833537 3.4246204 18.856333 3.4500833 18.875 3.46875 C 18.896 3.49075 18.9035 3.486 18.9375 3.5 C 18.9475 3.556 18.973 3.593 19 3.625 C 19.011 3.637 19.01625 3.6655 19.03125 3.6875 C 19.054904 3.7187231 19.087619 3.7544567 19.4375 3.9375 C 19.3955 3.9165 19.3435 3.93275 19.3125 3.96875 C 19.2965 3.98775 19.28025 4.00825 19.28125 4.03125 C 19.24025 4.01225 19.19525 3.98675 19.15625 3.96875 C 19.10525 3.94775 19.08125 3.93025 19.03125 3.90625 C 19.02525 3.90425 19.008 3.90825 19 3.90625 L 18.78125 3.875 C 18.76625 3.873 18.73575 3.869 18.71875 3.875 C 18.71175 3.877 18.6935 3.871 18.6875 3.875 L 18.5625 3.84375 L 18.4375 3.78125 C 18.4315 3.77825 18.381 3.751 18.375 3.75 L 18.1875 3.71875 C 18.1805 3.71775 18.16325 3.71875 18.15625 3.71875 L 18.03125 3.71875 C 18.01325 3.71875 17.98375 3.741 17.96875 3.75 C 17.94875 3.761 17.9445 3.76125 17.9375 3.78125 L 17.90625 3.84375 L 17.8125 3.875 C 17.7905 3.88 17.764 3.88625 17.75 3.90625 C 17.742 3.91825 17.72175 3.95275 17.71875 3.96875 L 17.6875 4 C 17.6735 4.014 17.66025 4.0425 17.65625 4.0625 L 17.625 4.125 C 17.615 4.138 17.59675 4.1705 17.59375 4.1875 C 17.59175 4.2005 17.59175 4.20575 17.59375 4.21875 L 17.59375 4.28125 L 17.5625 4.65625 C 17.5615 4.66325 17.5605 4.6755 17.5625 4.6875 C 17.5535 4.6925 17.53725 4.71075 17.53125 4.71875 L 17.34375 5 C 17.31675 5.033 17.2875 5.05875 17.3125 5.09375 L 17.625 5.5625 L 17.65625 5.65625 C 17.66225 5.67125 17.6765 5.6775 17.6875 5.6875 C 17.7575 5.7475 17.8555 5.76725 17.9375 5.78125 C 17.9485 5.78125 17.95775 5.77925 17.96875 5.78125 L 17.96875 5.9375 C 17.96475 5.9645 17.981 6.01025 18 6.03125 L 18.0625 6.125 C 18.0675 6.137 18.08775 6.14525 18.09375 6.15625 L 17.9375 6.21875 C 17.9255 6.22375 17.91625 6.20975 17.90625 6.21875 C 17.90225 6.22275 17.878 6.246 17.875 6.25 L 17.8125 6.34375 C 17.7915 6.34475 17.768 6.36 17.75 6.375 L 17.6875 6.4375 C 17.6805 6.4445 17.66025 6.46075 17.65625 6.46875 C 17.65325 6.47275 17.65825 6.496 17.65625 6.5 L 17.625 6.5625 L 17.625 6.46875 C 17.626 6.46375 17.625 6.4425 17.625 6.4375 C 17.617 6.3925 17.6195 6.389 17.0625 5.875 L 17.0625 5.75 C 17.0615 5.744 17.0635 5.6935 17.0625 5.6875 L 17.03125 5.65625 C 17.02925 5.65025 17.03525 5.631 17.03125 5.625 C 17.00825 5.584 16.9945 5.584 16.8125 5.5 L 16.8125 5.4375 C 16.7845 5.3865 16.72125 5.379 16.65625 5.375 L 16.53125 5.375 C 16.43525 5.384 16.42575 5.3975 16.34375 5.8125 C 16.34375 5.8285 16.33775 5.862 16.34375 5.875 C 16.34825 5.8835 16.33925 5.898 16.34375 5.90625 C 16.33475 5.90625 16.28925 5.9345 16.28125 5.9375 C 16.25925 5.9425 16.23975 5.94975 16.21875 5.96875 C 16.21075 5.97275 16.1965 5.96575 16.1875 5.96875 C 16.1745 5.97475 16.18225 5.987 16.15625 6 C 16.15025 6.004 16.128 5.996 16.125 6 C 16.068 6 16.0205 6.039 15.9375 6.125 C 15.9225 6.149 15.9315 6.19075 15.9375 6.21875 L 15.96875 6.34375 C 15.98075 6.37475 15.99125 6.37825 16.03125 6.40625 C 16.02525 6.41225 16.002 6.4335 16 6.4375 C 15.994 6.4475 16.003 6.45875 16 6.46875 L 15.96875 6.625 C 15.96575 6.661 15.975 6.722 16 6.75 C 16.021 6.772 16.059 6.79325 16.125 6.78125 L 16.40625 6.71875 C 16.41225 6.71675 16.4325 6.72075 16.4375 6.71875 L 16.65625 6.625 C 16.66175 6.622 16.682875 6.627875 16.6875 6.625 C 16.6895 6.629 16.6855 6.65225 16.6875 6.65625 L 16.65625 6.65625 C 16.64725 6.66325 16.631 6.6765 16.625 6.6875 C 16.621 6.6925 16.628 6.71275 16.625 6.71875 L 16.5625 6.84375 C 16.5545 6.88075 16.57175 6.93775 16.59375 6.96875 C 16.61775 7.00175 16.66275 7.02625 16.71875 7.03125 L 16.8125 7.03125 L 16.78125 7.125 C 16.77925 7.135 16.78125 7.14625 16.78125 7.15625 C 16.78125 7.16225 16.78025 7.1805 16.78125 7.1875 C 16.78925 7.2255 16.77225 7.2745 16.78125 7.3125 C 16.78725 7.3275 16.83275 7.39625 16.84375 7.40625 C 16.86175 7.42725 16.87925 7.4365 16.90625 7.4375 C 16.96725 7.4395 17.0135 7.4375 17.0625 7.4375 L 17.28125 7.59375 L 17.25 7.65625 C 17.249 7.66425 17.25 7.71075 17.25 7.71875 L 17.28125 7.84375 C 17.19025 7.82675 17.1775 7.797 16.8125 7.75 C 16.7815 7.744 16.75 7.74075 16.625 7.71875 C 16.611 7.71575 16.60675 7.71475 16.59375 7.71875 L 16.53125 7.75 C 16.50225 7.758 16.47975 7.7825 16.46875 7.8125 C 16.46275 7.8245 16.47675 7.82775 16.46875 7.84375 L 16.40625 7.84375 C 16.38225 7.84775 16.35875 7.88725 16.34375 7.90625 C 16.33975 7.91125 16.3195 7.89825 16.3125 7.90625 C 16.2925 7.92725 16.27725 7.973 16.28125 8 C 16.30125 8.126 16.32575 8.3075 16.34375 8.4375 L 16.28125 8.78125 C 16.28125 8.78925 16.28025 8.8055 16.28125 8.8125 C 16.28325 8.8255 16.27825 8.843 16.28125 8.875 C 16.28425 8.898 16.2945 8.9215 16.3125 8.9375 L 16.375 9 L 16.46875 9.25 C 16.49375 9.311 16.557 9.35575 16.625 9.34375 L 16.8125 9.3125 L 16.90625 9.375 L 16.28125 9.90625 C 16.27125 9.91425 16.254 9.95875 16.25 9.96875 L 16.15625 10.40625 L 15.71875 10.6875 L 15.53125 10.78125 C 15.50825 10.79125 15.47975 10.81975 15.46875 10.84375 C 15.38775 11.02575 15.242 11.2435 15.125 11.4375 C 15.075 11.5215 15.05 11.5985 15 11.6875 L 14.75 12.1875 C 14.744 12.2015 14.748 12.234 14.75 12.25 C 14.754 12.309 14.75 12.31175 14.75 12.34375 C 14.75 12.35775 14.743 12.39325 14.75 12.40625 C 14.751 12.41125 14.77825 12.4345 14.78125 12.4375 L 14.84375 12.53125 L 14.90625 13 L 14.59375 13.59375 C 14.57375 13.63075 14.594 13.68875 14.625 13.71875 L 14.75 13.84375 C 14.749 13.90275 14.752 13.97025 14.75 14.03125 C 14.748 14.04125 14.749 14.0505 14.75 14.0625 L 14.75 14.09375 C 14.75 14.11275 14.739 14.13925 14.75 14.15625 L 14.84375 14.3125 L 15 14.46875 L 15.3125 14.90625 C 15.3205 14.91725 15.33475 14.9315 15.34375 14.9375 L 15.53125 15.09375 L 15.65625 15.28125 C 15.66025 15.28425 15.6835 15.27825 15.6875 15.28125 L 15.75 15.3125 C 15.752 15.3145 15.748 15.34175 15.75 15.34375 L 15.78125 15.375 C 15.78925 15.382 15.8015 15.371 15.8125 15.375 L 16.25 15.625 L 16.40625 15.75 C 16.42125 15.762 16.4185 15.77925 16.4375 15.78125 C 16.4425 15.78225 16.46275 15.78125 16.46875 15.78125 C 16.53875 15.78125 16.6315 15.74575 16.6875 15.71875 L 17 15.6875 L 17.5 15.6875 C 17.504 15.6875 17.52725 15.65725 17.53125 15.65625 L 18 15.625 C 18.012 15.627 18.02125 15.627 18.03125 15.625 L 18.09375 15.625 C 18.10475 15.623 18.116 15.59975 18.125 15.59375 L 18.3125 15.5 L 18.5 15.5 L 18.625 15.46875 L 18.71875 15.75 C 18.73475 15.792 18.80075 15.8195 18.84375 15.8125 L 19.1875 15.8125 L 19.3125 16 L 19.34375 16.0625 L 19.0625 16.625 C 19.0505 16.65 19.0515 16.6625 19.0625 16.6875 L 19.3125 17.28125 L 19.34375 17.40625 L 19.34375 17.53125 C 19.34375 17.53325 19.34375 17.5615 19.34375 17.5625 C 19.34475 17.5775 19.368 17.58175 19.375 17.59375 C 19.38 17.60975 19.40125 17.64125 19.40625 17.65625 C 19.41325 17.67325 19.40225 17.69675 19.40625 17.71875 L 19.4375 17.78125 L 19.375 17.96875 L 19.25 18.65625 L 19.03125 18.84375 L 18.9375 19.09375 L 18.875 19.125 C 18.867 19.128 18.8205 19.15025 18.8125 19.15625 C 18.7985 19.16725 18.78925 19.1715 18.78125 19.1875 C 18.72825 19.3185 18.673 19.4455 18.625 19.5625 C 18.621 19.5725 18.625 19.615 18.625 19.625 C 18.623 19.635 18.623 19.64625 18.625 19.65625 L 18.6875 19.90625 C 18.5785 20.31125 18.45475 20.7505 18.34375 21.0625 C 18.34175 21.0675 18.3125 21.08875 18.3125 21.09375 L 18.3125 21.1875 L 18.21875 21.40625 C 18.17875 21.48925 18.16575 21.51925 18.09375 21.65625 L 18 21.75 C 17.941 21.816 17.88475 21.919 17.84375 22 L 17.8125 22.0625 C 17.7985 22.0865 17.8025 22.098 17.8125 22.125 C 17.8225 22.151 17.847 22.1775 17.875 22.1875 C 17.936 22.2105 17.98725 22.21875 18.03125 22.21875 C 18.04325 22.21875 18.0505 22.22275 18.0625 22.21875 C 18.0995 22.20475 18.1485 22.17825 18.1875 22.15625 L 18.1875 22.125 C 18.3505 22.094 18.566 22.07125 18.75 22.03125 L 19.09375 21.875 C 19.09975 21.873 19.121 21.84675 19.125 21.84375 L 19.625 21.5 C 19.629 21.498 19.65325 21.503 19.65625 21.5 L 19.65625 21.46875 C 19.71825 21.42675 19.86825 21.3445 19.90625 21.3125 L 20.15625 21.03125 L 20.28125 20.90625 L 20.34375 20.875 L 20.40625 20.875 C 20.41925 20.875 20.4255 20.879 20.4375 20.875 C 20.4925 20.852 20.5265 20.787 20.5625 20.75 L 20.875 20.4375 C 20.882 20.4305 20.90225 20.41525 20.90625 20.40625 L 21.09375 20.0625 L 21.125 20.03125 L 21.15625 20.03125 C 21.17125 20.03125 21.1745 20.006 21.1875 20 C 21.2415 19.976 21.2795 19.94425 21.3125 19.90625 L 21.375 19.84375 C 21.514 19.74675 21.68325 19.60625 21.78125 19.53125 L 21.8125 19.53125 C 21.797078 19.550937 21.7985 19.57125 21.78125 19.59375 C 21.77525 19.59975 21.755 19.64825 21.75 19.65625 L 21.625 19.875 L 21.375 20.09375 C 21.355 20.11575 21.35525 20.11875 21.03125 20.59375 C 21.00625 20.63675 21.002 20.691 21 20.75 C 20.997 20.789 20.99825 20.82475 21.03125 20.84375 C 18.995575 22.928593 16.152233 24.21875 13 24.21875 C 12.467695 24.21875 11.949804 24.165039 11.4375 24.09375 C 11.448 24.06975 11.446406 24.024281 11.4375 24 C 11.4515 24.004 11.486 24.002 11.5 24 C 11.514 23.997 11.51925 23.97675 11.53125 23.96875 C 11.55225 23.95275 11.58875 23.93325 11.59375 23.90625 C 11.59775 23.87725 11.5815 23.8345 11.5625 23.8125 L 11.46875 23.71875 C 11.44875 23.69775 11.45275 23.676 11.34375 23.625 C 11.33375 23.622 11.3235 23.625 11.3125 23.625 C 11.2975 23.622 11.264 23.65025 11.25 23.65625 C 11.23 23.66225 11.2035 23.64725 11.1875 23.65625 C 11.1465 23.67925 11.14025 23.73725 11.15625 23.78125 C 11.16125 23.79925 11.1715 23.81275 11.1875 23.84375 L 11.03125 23.8125 C 11.02425 23.8085 11.012 23.78425 11 23.78125 C 10.991 23.77925 10.97575 23.78225 10.96875 23.78125 L 10.9375 23.75 C 10.9315 23.744 10.91225 23.72275 10.90625 23.71875 L 10.78125 23.65625 L 10.65625 23.46875 C 10.65425 23.46475 10.627 23.4385 10.625 23.4375 C 10.6 23.4145 10.5865 23.402 10.5625 23.375 C 10.5515 23.362 10.54825 23.34975 10.53125 23.34375 L 10.40625 23.3125 C 10.40625 23.2905 10.39 23.268 10.375 23.25 C 10.278 23.136 10.18175 23.01725 10.09375 22.90625 C 10.08475 22.89525 10.0735 22.88 10.0625 22.875 L 10.03125 22.875 C 10.05525 22.845 10.0815 22.784 10.0625 22.75 C 10.0565 22.736 10.03825 22.72775 10.03125 22.71875 L 10.15625 22.625 C 10.17725 22.61 10.1845 22.5875 10.1875 22.5625 C 10.1905 22.5515 10.1895 22.54225 10.1875 22.53125 L 10.15625 22.3125 C 10.15425 22.2915 10.17025 22.265 10.15625 22.25 C 10.14155 22.236 10.109822 22.229516 10.09375 22.21875 C 10.11375 22.21275 10.14425 22.17425 10.15625 22.15625 C 10.16425 22.14725 10.1855 22.136 10.1875 22.125 L 10.21875 21.96875 L 10.25 21.9375 C 10.261 21.9255 10.246 21.92125 10.25 21.90625 L 10.3125 21.6875 C 10.3215 21.6775 10.34075 21.638 10.34375 21.625 C 10.34775 21.614 10.34475 21.60575 10.34375 21.59375 L 10.34375 21.5 C 10.36975 21.473 10.389 21.411 10.375 21.375 L 10.1875 20.875 C 10.4125 20.751 10.69325 20.612 10.90625 20.5 C 10.93325 20.484 10.9335 20.4685 10.9375 20.4375 L 10.96875 20.28125 C 11.00375 20.05225 11.0275 19.7715 11.0625 19.5625 C 11.0645 19.5495 11.0645 19.54425 11.0625 19.53125 L 10.9375 18.9375 L 11 18.875 L 11.09375 18.84375 C 11.10675 18.83875 11.115 18.8205 11.125 18.8125 L 11.15625 18.78125 L 11.34375 18.4375 L 11.53125 18.09375 C 11.53825 18.08175 11.5605 18.04425 11.5625 18.03125 C 11.5635 18.02125 11.5645 18.009 11.5625 18 L 11.4375 17.46875 C 11.4315 17.43975 11.403 17.41925 11.375 17.40625 C 11.093 17.26325 10.7415 17.0845 10.4375 16.9375 C 10.4345 16.9355 10.41025 16.90825 10.40625 16.90625 L 9.625 16.8125 L 9.375 16.71875 L 9.0625 16.5 C 9.0585 16.498 9.03725 16.47075 9.03125 16.46875 L 8.96875 16.4375 C 8.98275 16.4105 8.98275 16.37175 8.96875 16.34375 C 8.96175 16.32775 8.9455 16.29325 8.9375 16.28125 C 8.9185 16.25625 8.901 16.241 8.875 16.25 L 8.84375 16.25 L 8.625 16.0625 L 8.34375 15.65625 C 8.33975 15.64025 8.3235 15.637 8.3125 15.625 L 8.28125 15.59375 C 8.27025 15.58175 8.265 15.5675 8.25 15.5625 L 7.78125 15.34375 L 7.625 15.21875 C 7.604 15.20175 7.5895 15.21575 7.5625 15.21875 L 7.25 15.25 L 6.9375 14.90625 L 6.96875 14.875 C 7.00275 14.861 7.02725 14.8495 7.03125 14.8125 C 7.03925 14.7385 7.03425 14.673 7.03125 14.625 L 7.125 14.53125 C 7.145 14.51125 7.15625 14.49575 7.15625 14.46875 L 7.15625 14.40625 C 7.15625 14.35325 7.1145 14.3155 7.0625 14.3125 C 6.9355 14.3035 6.82275 14.3135 6.71875 14.3125 C 6.71875 14.3065 6.71875 14.28625 6.71875 14.28125 C 6.71875 14.26025 6.7285 14.242 6.6875 14.125 C 6.7255 14.101 6.75 14.07925 6.75 14.03125 C 6.75 14.01025 6.7465 14.00675 6.6875 13.84375 C 6.6855 13.81675 6.68025 13.7625 6.65625 13.6875 C 6.67025 13.6785 6.6765 13.67425 6.6875 13.65625 C 6.7175 13.60225 6.71025 13.57025 6.65625 13.40625 C 6.65425 13.40025 6.65825 13.381 6.65625 13.375 C 6.66325 13.352 6.66425 13.3365 6.65625 13.3125 C 6.70525 13.2915 6.746 13.2465 6.75 13.1875 C 6.75 13.1665 6.7405 13.172 6.6875 13 C 6.6635 12.957 6.62575 12.91625 6.59375 12.90625 C 6.59775 12.86825 6.5875 12.8415 6.5625 12.8125 C 6.5385 12.7845 6.51275 12.752 6.46875 12.75 L 6.4375 12.75 C 6.4275 12.704 6.3735 12.67325 6.3125 12.65625 C 6.2285 12.63425 6.13225 12.61175 6.03125 12.59375 C 5.98125 12.58475 5.93525 12.5665 5.90625 12.5625 C 5.88925 12.5575 5.86075 12.5605 5.84375 12.5625 C 5.80975 12.5705 5.77 12.599 5.75 12.625 C 5.712 12.596 5.69325 12.55825 5.65625 12.53125 L 5.5625 12.46875 C 5.5415 12.44875 5.49675 12.4295 5.46875 12.4375 C 5.42575 12.4415 5.36875 12.459 5.34375 12.5 L 5.0625 12.34375 L 4.9375 12.28125 C 4.9205 12.27125 4.911 12.259 4.875 12.25 C 4.861 12.246 4.8285 12.247 4.8125 12.25 C 4.8680114 12.232647 4.902 12.19535 4.90625 12.15625 C 4.91425 12.11325 4.8985 12.088 4.8125 11.875 C 4.7875 11.818 4.7425 11.7965 4.6875 11.8125 C 4.6635 11.8185 4.62475 11.829 4.59375 11.875 C 4.57275 11.912 4.55225 11.957 4.53125 12 L 4.5 12.03125 C 4.396 11.95825 4.3025 11.8915 4.1875 11.8125 C 4.0265 11.7035 3.85375 11.56775 3.71875 11.46875 C 3.70475 11.45875 3.67325 11.46975 3.65625 11.46875 C 3.64425 11.46775 3.634 11.46575 3.625 11.46875 L 3.34375 11.53125 C 3.33675 11.53325 3.3185 11.52725 3.3125 11.53125 C 3.2605 11.55025 3.262 11.568 3.125 11.875 C 3.11 11.861 3.0795 11.84975 3.0625 11.84375 C 3.0475 11.83975 3.04625 11.8105 3.03125 11.8125 L 2.5625 11.90625 C 2.5235 11.91125 2.512 11.93075 2.5 11.96875 L 2.375 12.34375 L 2.25 12.375 L 2.125 12.03125 L 2.25 11.34375 L 2.34375 11.03125 L 2.4375 10.875 C 2.5495 10.7 2.67325 10.50175 2.78125 10.34375 L 2.9375 10.34375 L 3.15625 10.5625 C 3.18725 10.5935 3.24325 10.5845 3.28125 10.5625 C 3.37125 10.5115 3.4125 10.4025 3.4375 10.3125 L 3.71875 10.40625 L 3.6875 11.21875 C 3.6855 11.25775 3.68575 11.2955 3.71875 11.3125 C 3.80275 11.3565 3.86325 11.34375 3.90625 11.34375 C 3.93025 11.34375 3.983 11.3295 4 11.3125 L 4.03125 11.3125 L 4.0625 11.4375 C 4.0725 11.4725 4.1015 11.51625 4.1875 11.53125 L 4.3125 11.53125 C 4.3175 11.53125 4.34175 11.53225 4.34375 11.53125 C 4.40275 11.52425 4.4255 11.4875 4.4375 11.4375 C 4.4505 11.4035 4.45325 11.40725 4.40625 11.15625 C 4.39025 11.09425 4.34325 11.03125 4.28125 11.03125 L 4.1875 11.03125 L 4.28125 10.78125 C 4.30525 10.61325 4.31375 10.44525 4.34375 10.28125 L 4.59375 9.875 L 4.625 9.875 C 4.64 9.875 4.64225 9.881 4.65625 9.875 L 4.9375 9.6875 C 5.1065 9.5715 5.2895 9.44375 5.4375 9.34375 C 5.4495 9.33675 5.46175 9.3225 5.46875 9.3125 C 5.49475 9.2735 5.496 9.24075 5.5 9.21875 C 5.525 9.10675 5.56475 9.01525 5.59375 8.90625 C 5.59975 8.91025 5.616 8.89825 5.625 8.90625 C 5.666 8.93825 5.714 8.94225 5.75 8.90625 L 6.15625 8.46875 C 6.16225 8.46275 6.1845 8.47475 6.1875 8.46875 L 6.25 8.375 L 6.6875 8.3125 C 6.7125 8.3095 6.76425 8.29925 6.78125 8.28125 L 6.90625 8.15625 C 6.93125 8.12925 6.91825 8.06725 6.90625 8.03125 L 7 7.90625 L 7.09375 7.90625 C 7.10375 7.90625 7.117 7.878 7.125 7.875 C 7.13 7.875 7.15225 7.877 7.15625 7.875 L 7.46875 7.71875 L 7.46875 7.8125 C 7.46075 7.8415 7.44875 7.851 7.46875 7.875 L 7.5 7.90625 C 7.527 7.93825 7.588 7.9525 7.625 7.9375 C 7.787 7.8765 7.97325 7.819 8.15625 7.75 L 8.34375 7.65625 C 8.35775 7.65125 8.39425 7.635 8.40625 7.625 L 8.4375 7.59375 L 8.5625 7.59375 C 8.6095 7.59175 8.618 7.56475 8.75 7.46875 C 8.76 7.45875 8.77625 7.4505 8.78125 7.4375 C 8.80725 7.3795 8.79 7.32425 8.75 7.28125 L 8.78125 7.15625 C 8.78525 7.12925 8.768 7.0855 8.75 7.0625 C 8.726 7.0355 8.678 7.004 8.625 7 C 8.568 7.004 8.57525 7.0035 8.28125 7.3125 L 8.21875 7.25 C 8.22875 7.211 8.242 7.163 8.25 7.125 C 8.275 7.125 8.2955 7.11075 8.3125 7.09375 L 8.4375 6.96875 C 8.4595 6.94775 8.47175 6.87575 8.46875 6.84375 C 8.46575 6.82175 8.4525 6.79725 8.4375 6.78125 L 8.90625 6.78125 C 8.88825 6.79325 8.84875 6.82 8.84375 6.875 C 8.83975 6.906 8.82675 6.9135 8.84375 6.9375 L 8.8125 7.03125 C 8.7975 7.05925 8.7985 7.12825 8.8125 7.15625 C 8.8415 7.21425 8.834 7.2 9.125 7.25 L 9.15625 7.3125 C 9.16825 7.3265 9.20725 7.371 9.28125 7.375 L 9.375 7.375 C 9.402 7.371 9.4115 7.36475 9.4375 7.34375 C 9.4585 7.35975 9.49725 7.369 9.53125 7.375 L 9.625 7.375 C 9.669 7.367 9.679 7.35575 9.875 7.21875 C 9.885 7.20875 9.89825 7.19625 9.90625 7.15625 C 9.91025 7.13425 9.9325 7.0975 9.9375 7.0625 C 9.9375 7.0075 9.918 6.99375 9.875 6.96875 L 9.875 6.9375 C 9.885 6.9115 9.91525 6.86775 9.90625 6.84375 C 9.89025 6.80675 9.85925 6.787 9.78125 6.75 L 9.9375 6.59375 C 9.9785 6.55675 9.98875 6.51775 9.96875 6.46875 C 9.95775 6.43975 9.93725 6.41925 9.90625 6.40625 L 10.03125 6.25 C 10.04625 6.227 10.03825 6.18325 10.03125 6.15625 C 10.02025 6.12325 10.00375 6.10075 9.96875 6.09375 L 9.75 6.0625 C 9.756 6.0535 9.77725 6.04025 9.78125 6.03125 C 9.80825 5.95425 9.82775 5.8685 9.84375 5.8125 C 9.85275 5.7705 9.81825 5.7115 9.78125 5.6875 L 9.75 5.65625 L 9.78125 5.5625 C 9.82725 5.2675 9.873 5.136 9.875 5.125 C 9.884 5.083 9.8495 5.022 9.8125 5 C 9.8535 4.986 9.8525 4.9635 9.9375 4.8125 C 9.9465 4.8165 9.96175 4.8095 9.96875 4.8125 C 9.97675 4.8135 9.992 4.84375 10 4.84375 L 10.0625 4.84375 C 10.1225 4.84175 10.128 4.8195 10.375 4.5625 C 10.394 4.5735 10.4205 4.59375 10.4375 4.59375 C 10.4875 4.59375 10.50325 4.59 10.90625 4.375 C 10.91325 4.373 10.9335 4.34775 10.9375 4.34375 C 10.9575 4.32675 10.96575 4.30525 10.96875 4.28125 C 10.97675 4.23225 10.971 4.23875 10.75 3.96875 L 10.875 3.84375 C 10.912 3.77675 10.9015 3.7475 10.6875 3.4375 C 10.6815 3.4275 10.66525 3.4435 10.65625 3.4375 C 10.64825 3.4315 10.632 3.40925 10.625 3.40625 C 10.652 3.38725 10.679 3.35825 10.75 3.28125 C 10.753 3.27825 10.748 3.254 10.75 3.25 C 10.766 3.256 10.7965 3.254 10.8125 3.25 C 10.9115 3.229 11.00775 3.182 11.09375 3.125 C 11.11675 3.109 11.13525 3.0755 11.15625 3.0625 L 11.1875 3.0625 C 11.1955 3.0625 11.21275 3.0645 11.21875 3.0625 L 11.375 3.03125 C 11.39225 3.02225 11.421375 3.0188437 11.4375 3 C 11.4385 3.017 11.46075 3.01725 11.46875 3.03125 C 11.46075 3.05325 11.4435 3.07175 11.4375 3.09375 C 11.4335 3.10375 11.4375 3.14625 11.4375 3.15625 C 11.4375 3.16625 11.4355 3.1795 11.4375 3.1875 L 11.46875 3.25 C 11.47675 3.272 11.51125 3.3015 11.53125 3.3125 C 11.54525 3.3205 11.57575 3.3125 11.59375 3.3125 C 11.68775 3.3145 11.77475 3.3155 11.84375 3.3125 L 11.9375 3.34375 L 11.9375 3.40625 L 11.875 3.59375 C 11.869 3.60975 11.873 3.6725 11.875 3.6875 C 11.878 3.7085 11.89225 3.70275 11.90625 3.71875 C 11.89625 3.74375 11.89425 3.7865 11.90625 3.8125 C 11.91525 3.8325 11.9255 3.854 11.9375 3.875 L 11.9375 3.90625 C 11.9435 3.91725 11.96075 3.9305 11.96875 3.9375 L 11.8125 3.9375 C 11.7615 3.9435 11.7795 3.943 11.5625 4.125 C 11.5505 4.136 11.53825 4.1725 11.53125 4.1875 C 11.52825 4.1935 11.501 4.1795 11.5 4.1875 L 11.46875 4.40625 C 11.46575 4.42325 11.46375 4.4205 11.46875 4.4375 C 11.47675 4.4585 11.51825 4.484 11.53125 4.5 C 11.53125 4.504 11.501 4.52625 11.5 4.53125 L 11.46875 4.53125 C 11.45975 4.53525 11.4445 4.5575 11.4375 4.5625 C 11.4245 4.5725 11.388 4.584 11.375 4.625 C 11.37 4.643 11.371 4.6695 11.375 4.6875 L 11.5 5.125 C 11.505 5.146 11.51625 5.14225 11.53125 5.15625 C 11.55125 5.17225 11.57875 5.1805 11.59375 5.1875 C 11.60675 5.1925 11.612 5.21875 11.625 5.21875 L 11.71875 5.21875 L 11.78125 5.3125 C 11.78825 5.3245 11.8015 5.33475 11.8125 5.34375 C 11.8445 5.36775 11.8905 5.386 11.9375 5.375 L 12.15625 5.34375 C 12.16925 5.34075 12.1775 5.3185 12.1875 5.3125 L 12.34375 5.1875 C 12.48375 5.0415 12.623 4.85375 12.75 4.71875 L 13.0625 4.625 C 13.0685 4.624 13.08875 4.59675 13.09375 4.59375 L 13.15625 4.5625 L 13.1875 4.59375 C 13.1955 4.59575 13.21075 4.59375 13.21875 4.59375 C 13.27075 4.59375 13.30075 4.5635 13.46875 4.4375 L 13.78125 4.28125 L 13.9375 4.3125 C 13.9465 4.3145 13.95975 4.3145 13.96875 4.3125 L 14 4.3125 C 14.191 4.2425 14.46425 4.1375 14.65625 4.0625 C 14.69525 4.0625 14.733 4.035 14.75 4 L 14.78125 3.9375 C 14.80325 3.8925 14.82575 3.82125 14.84375 3.78125 C 14.84975 3.76525 14.878 3.769 14.875 3.75 C 14.872 3.723 14.86175 3.7055 14.84375 3.6875 C 14.86575 3.6725 14.87 3.62175 14.875 3.59375 L 14.9375 3.28125 C 14.9395 3.26425 14.9455 3.23675 14.9375 3.21875 C 14.9495 3.19375 14.9505 3.18325 14.9375 3.15625 C 14.9055 3.08925 14.87575 2.9975 14.84375 2.9375 C 14.86175 2.9315 14.863 2.92425 14.875 2.90625 L 14.9375 2.9375 C 14.9705 2.9505 15.00225 2.93025 15.03125 2.90625 L 15.09375 2.84375 C 15.11475 2.82575 15.124 2.80825 15.125 2.78125 L 15.125 2.75 C 15.125 2.729 15.137 2.7035 15.125 2.6875 C 15.068 2.6065 14.96 2.5815 14.875 2.5625 C 14.849 2.5555 14.82125 2.5725 14.78125 2.5625 C 14.77725 2.5625 14.755 2.5625 14.75 2.5625 C 14.714 2.5625 14.69025 2.5505 14.65625 2.5625 C 14.65125 2.5435 14.64 2.54525 14.625 2.53125 C 14.604 2.51325 14.5805 2.4665 14.5625 2.4375 C 14.5415 2.3985 14.51775 2.3515 14.46875 2.3125 C 14.38475 2.2435 14.2835 2.23375 14.1875 2.21875 C 14.0185 2.19775 13.82225 2.20275 13.65625 2.21875 C 13.59325 2.22375 13.52775 2.22075 13.46875 2.21875 C 13.40175 2.21475 13.33725 2.21275 13.28125 2.21875 C 13.24425 2.22175 13.2135 2.24 13.1875 2.25 C 13.1625 2.24 13.1025 2.241 13.0625 2.25 C 12.9475 2.279 12.857 2.3545 12.75 2.4375 C 12.727 2.4565 12.67825 2.482 12.65625 2.5 C 12.63925 2.469 12.5975 2.4385 12.5625 2.4375 C 12.4705 2.4355 12.4645 2.43925 12.4375 2.40625 C 12.4315 2.39625 12.4425 2.36075 12.4375 2.34375 C 12.4215 2.29475 12.373 2.2105 12.25 2.1875 C 12.246 2.1875 12.22475 2.1875 12.21875 2.1875 C 12.18575 2.1875 12.15 2.21175 12.125 2.21875 C 12.127 2.21775 12.124 2.1905 12.125 2.1875 C 12.126 2.1415 12.12675 2.042 11.96875 2 C 11.94875 1.995 11.93125 2 11.90625 2 C 11.88125 2 11.77775 1.99225 11.71875 2.03125 C 11.66475 2.06625 11.65625 2.108 11.65625 2.125 C 11.64225 2.137 11.649 2.14725 11.625 2.15625 C 11.604 2.16525 11.55225 2.1715 11.53125 2.1875 C 11.49425 2.2105 11.4655 2.25225 11.4375 2.28125 C 11.4085 2.31225 11.38675 2.35075 11.34375 2.34375 C 11.31775 2.33175 11.30625 2.33175 11.28125 2.34375 C 11.20125 2.37875 11.16525 2.42375 11.15625 2.46875 C 11.12025 2.50275 11.0745 2.569 11.0625 2.625 C 11.0455 2.635 10.99975 2.63625 10.96875 2.65625 L 10.96875 2.53125 C 10.95775 2.48125 10.88575 2.4325 10.84375 2.4375 C 10.80175 2.4415 10.785 2.48325 10.75 2.53125 L 10.5625 2.625 C 10.5545 2.63 10.53825 2.65025 10.53125 2.65625 L 10.375 2.84375 C 10.35 2.87275 10.32875 2.9035 10.34375 2.9375 C 10.34425 2.939 10.34325 2.967625 10.34375 2.96875 C 10.32475 2.94175 10.31675 2.92825 10.21875 2.90625 C 10.21975 2.90625 10.21875 2.876 10.21875 2.875 L 10.3125 2.75 C 10.3295 2.723 10.3265 2.68625 10.3125 2.65625 C 10.2965 2.62025 10.25875 2.59775 10.21875 2.59375 C 10.17475 2.59675 10.16 2.5735 10 2.6875 C 9.994 2.6915 9.97375 2.71375 9.96875 2.71875 L 9.90625 2.875 C 9.89625 2.869 9.887 2.84575 9.875 2.84375 C 9.887 2.82375 9.876 2.80025 9.875 2.78125 C 9.871 2.73025 9.84625 2.70525 9.78125 2.65625 C 9.76125 2.64425 9.74375 2.65025 9.71875 2.65625 C 9.69975 2.65825 9.67275 2.6505 9.59375 2.6875 C 9.53575 2.6595 9.4605 2.69975 9.4375 2.71875 C 9.4175 2.73775 9.392 2.76325 9.375 2.78125 C 9.356 2.74125 9.32325 2.71475 9.28125 2.71875 L 8.9375 2.75 C 8.9325 2.751 8.91025 2.748 8.90625 2.75 L 8.6875 2.84375 C 8.6335 2.86675 8.6195 2.87775 8.5625 2.96875 C 8.5515 2.96775 8.54125 2.96875 8.53125 2.96875 L 8.34375 2.96875 C 8.33475 2.96875 8.3205 2.96675 8.3125 2.96875 C 8.3075 2.96975 8.28525 2.999 8.28125 3 L 7.90625 3.15625 C 7.90025 3.15925 7.881 3.15225 7.875 3.15625 L 7.65625 3.3125 C 7.62125 3.3375 7.60375 3.37425 7.59375 3.40625 C 7.58375 3.44425 7.595 3.475 7.625 3.5 C 7.614 3.51 7.60175 3.51725 7.59375 3.53125 L 7.5625 3.46875 C 7.5535 3.43975 7.526 3.41625 7.5 3.40625 C 7.496 3.39325 7.509 3.386 7.5 3.375 C 7.476 3.345 7.414 3.32775 7.375 3.34375 L 7.34375 3.34375 L 7.3125 3.34375 C 8.9826878 2.3581537 10.915572 1.78125 13 1.78125 z M 16.8125 2.6875 L 16.6875 2.71875 C 16.6745 2.72175 16.66725 2.71175 16.65625 2.71875 L 16.59375 2.75 C 16.58075 2.746 16.54625 2.747 16.53125 2.75 C 16.50225 2.753 16.48375 2.76825 16.46875 2.78125 L 16.3125 2.78125 C 16.2745 2.78125 16.23575 2.7785 16.21875 2.8125 C 16.21075 2.8265 16.21875 2.859 16.21875 2.875 C 16.21975 2.941 16.223 2.9635 16.375 3.0625 C 16.379 3.0645 16.40325 3.0605 16.40625 3.0625 L 16.53125 3.125 C 16.55325 3.138 16.603 3.129 16.625 3.125 L 16.6875 3.21875 C 16.7185 3.25775 16.715 3.281 17 3.375 C 17.01 3.375 17.02525 3.377 17.03125 3.375 C 17.06125 3.37 17.08075 3.3405 17.09375 3.3125 C 17.10975 3.2835 17.136 3.24775 17.125 3.21875 L 17.21875 3.21875 C 17.25575 3.21275 17.3005 3.19225 17.3125 3.15625 C 17.3265 3.11625 17.31425 3.05825 17.28125 3.03125 C 17.26825 3.02225 17.26225 3.01975 17.15625 2.96875 C 17.17025 2.92675 17.1335 2.90025 17.0625 2.78125 C 17.0575 2.77525 17.0695 2.756 17.0625 2.75 C 17.0315 2.722 17.009 2.7285 16.875 2.6875 C 16.866 2.6855 16.85275 2.6875 16.84375 2.6875 C 16.83575 2.6875 16.8205 2.6865 16.8125 2.6875 z M 9.625 3.9375 C 9.664 3.9515 9.72925 3.95175 9.78125 3.96875 L 9.625 4.09375 C 9.621 4.09775 9.63 4.12 9.625 4.125 L 9.53125 4.21875 L 9.34375 4.21875 L 9.625 3.9375 z M 19.46875 3.9375 C 19.48075 3.9415 19.51825 3.9375 19.53125 3.9375 C 19.54425 3.9375 19.5495 3.9425 19.5625 3.9375 L 19.59375 3.9375 C 19.612025 3.9507927 19.638059 3.9553497 19.65625 3.96875 C 19.649962 3.983558 19.6238 3.9826 19.625 4 L 19.625 4.0625 L 19.46875 3.9375 z M 9.25 4.25 C 9.234 4.26 9.2145 4.26425 9.1875 4.28125 C 9.1855 4.28325 9.15825 4.3105 9.15625 4.3125 L 9.03125 4.4375 C 9.02125 4.4555 8.969 4.5075 9 4.5625 L 8.90625 4.53125 C 8.89925 4.52725 8.883 4.53325 8.875 4.53125 L 8.90625 4.34375 C 8.90825 4.33175 8.90825 4.3245 8.90625 4.3125 L 9.25 4.25 z M 14.625 4.28125 C 14.594 4.28125 14.55075 4.30175 14.34375 4.34375 C 14.29975 4.35775 14.29125 4.36725 14.28125 4.40625 C 14.27125 4.44125 14.2855 4.50625 14.3125 4.53125 C 14.3485 4.56425 14.3945 4.6 14.4375 4.625 L 14.40625 4.6875 C 14.39725 4.7125 14.39425 4.75725 14.40625 4.78125 C 14.43425 4.83825 14.41625 4.855 14.90625 5 C 14.91525 5.003 14.9285 5 14.9375 5 C 14.9715 5 14.972 5.01125 15.5 4.78125 C 15.56 4.74025 15.5715 4.662 15.5625 4.625 C 15.5555 4.597 15.54425 4.57225 15.53125 4.53125 C 15.52525 4.51725 15.51 4.511 15.5 4.5 C 15.496 4.497 15.503 4.47075 15.5 4.46875 L 15.28125 4.3125 C 15.26125 4.2985 15.20525 4.28325 15.15625 4.28125 L 14.78125 4.34375 L 14.6875 4.3125 C 14.6735 4.3055 14.639 4.28125 14.625 4.28125 z M 8.0625 4.5625 L 8.25 4.5625 L 8.21875 4.59375 C 8.21175 4.64275 8.2655 4.6745 8.3125 4.6875 C 8.3765 4.7075 8.4015 4.71875 8.4375 4.71875 C 8.4495 4.71875 8.49 4.6915 8.5 4.6875 L 8.5625 4.6875 L 8.59375 4.6875 C 8.52475 4.7555 8.46425 4.82925 8.40625 4.90625 C 8.36725 4.95725 8.31825 5.0215 8.28125 5.0625 L 8.0625 5.125 C 8.0415 5.133 8.04325 5.13825 8.03125 5.15625 L 7.78125 5.53125 L 7.3125 5.6875 C 7.2875 5.6935 7.263 5.728 7.25 5.75 C 7.241 5.766 7.258 5.76625 7.25 5.78125 L 7.21875 5.78125 L 7.09375 5.5625 L 7.03125 5.3125 C 7.02425 5.2835 6.99775 5.261 6.96875 5.25 C 6.98975 5.233 6.998 5.2145 7 5.1875 L 7.03125 5.125 L 7.34375 4.90625 C 7.45175 4.86425 7.5625 4.8 7.6875 4.75 L 7.96875 4.65625 C 7.98175 4.65125 7.99 4.634 8 4.625 C 8.006 4.617 8.02425 4.59975 8.03125 4.59375 C 8.05025 4.57975 8.0575 4.5855 8.0625 4.5625 z M 9.375 4.59375 L 9.40625 4.625 L 9.375 4.65625 C 9.311 4.75825 9.3575 4.776 9.6875 5 L 9.34375 5.15625 L 9.40625 5.0625 C 9.44325 5.0255 9.44125 4.9765 9.40625 4.9375 L 9.1875 4.6875 C 9.1815 4.6845 9.16225 4.66025 9.15625 4.65625 L 9.0625 4.625 C 9.1225 4.654 9.157 4.62875 9.375 4.59375 z M 19.03125 5.34375 L 19.1875 5.40625 C 19.2085 5.41425 19.229 5.4435 19.25 5.4375 C 19.269 5.5015 19.2865 5.5205 19.3125 5.5625 C 19.3175 5.5745 19.33575 5.58675 19.34375 5.59375 C 19.35375 5.60175 19.363 5.619 19.375 5.625 C 19.368 5.646 19.367 5.6675 19.375 5.6875 L 19.4375 5.875 C 19.3625 5.854 19.2675 5.88625 19.1875 5.90625 C 19.1665 5.91325 19.144 5.9335 19.125 5.9375 C 19.119 5.9385 19.09875 5.9345 19.09375 5.9375 L 18.875 6.03125 L 18.875 6 C 18.918 5.986 18.9395 5.95125 18.9375 5.90625 L 18.9375 5.6875 L 18.96875 5.59375 L 19 5.375 C 19.002 5.365 19.03125 5.35275 19.03125 5.34375 z M 21.375 7.65625 C 21.381 7.66625 21.39625 7.6775 21.40625 7.6875 C 21.61225 7.8745 21.60525 7.875 21.65625 7.875 C 21.67625 7.875 21.6715 7.885 21.6875 7.875 C 21.7055 7.867 21.738 7.85775 21.75 7.84375 C 21.766154 7.8214423 21.799441 7.8000074 21.8125 7.78125 L 22.15625 8 L 22.28125 8.09375 L 22.15625 8.125 C 22.01725 8.029 22.00875 8.03125 21.96875 8.03125 C 21.95675 8.03125 21.91625 8.02725 21.90625 8.03125 C 21.84025 8.05425 21.7635 8.096 21.6875 8.125 C 21.6235 8.149 21.558 8.1665 21.5 8.1875 L 21.4375 8.1875 L 21.3125 8.0625 C 21.3095 8.0575 21.3145 8.03725 21.3125 8.03125 C 21.3205 8.01525 21.34275 7.99475 21.34375 7.96875 L 21.3125 7.90625 C 21.3265 7.89025 21.33875 7.86475 21.34375 7.84375 C 21.34975 7.82575 21.34375 7.80225 21.34375 7.78125 L 21.375 7.65625 z M 18.78125 8.09375 C 18.777125 8.09875 18.78575 8.12 18.78125 8.125 C 18.76925 8.14 18.78425 8.13825 18.78125 8.15625 C 18.77825 8.16525 18.77125 8.188 18.78125 8.25 C 18.79125 8.285 18.8055 8.341 18.8125 8.375 C 18.8215 8.393 18.83375 8.4265 18.84375 8.4375 C 18.83875 8.4565 18.83975 8.469 18.84375 8.5 L 18.84375 8.5625 C 18.85775 8.6255 18.89125 8.683 18.90625 8.75 C 18.92625 8.833 18.972 8.869 19 8.875 C 19.017 8.879 19.0455 8.879 19.0625 8.875 C 19.0665 8.874 19.09075 8.84575 19.09375 8.84375 L 19.21875 8.8125 C 19.27075 8.7955 19.3125 8.7415 19.3125 8.6875 C 19.3125 8.6665 19.32 8.6545 19.25 8.4375 C 19.236 8.3965 19.19925 8.35975 19.15625 8.34375 C 19.16425 8.31875 19.1785 8.31625 19.1875 8.28125 L 19.34375 8.4375 C 19.34975 8.4445 19.39825 8.46475 19.40625 8.46875 L 19.75 8.65625 L 19.8125 8.6875 L 19.84375 8.78125 L 19.59375 8.71875 C 19.57275 8.71575 19.519 8.742 19.5 8.75 C 19.46 8.768 19.4335 8.79975 19.4375 8.84375 C 19.4425 8.87575 19.45975 8.92475 19.46875 8.96875 C 19.47175 8.98575 19.45875 8.988 19.46875 9 C 19.53875 9.088 19.652 9.15575 19.75 9.21875 C 19.761 9.22475 19.77225 9.244 19.78125 9.25 C 19.71725 9.26 19.6885 9.305 19.6875 9.375 C 19.6775 9.33 19.66325 9.291 19.65625 9.25 C 19.65225 9.228 19.642 9.2025 19.625 9.1875 L 19.53125 9.125 L 19.375 9.03125 C 19.353 9.01825 19.3375 9 19.3125 9 C 19.3005 9 19.26 8.996 19.25 9 L 19.09375 9.0625 L 18.1875 9.125 C 18.1805 9.126 18.16325 9.122 18.15625 9.125 L 17.5625 9.34375 L 17.34375 9.34375 C 17.34975 9.33575 17.33875 9.3205 17.34375 9.3125 L 17.5625 9.28125 C 17.5725 9.28025 17.58475 9.28525 17.59375 9.28125 L 17.625 9.28125 C 17.635 9.27725 17.65025 9.256 17.65625 9.25 L 17.84375 9.09375 L 17.875 9.0625 C 17.902 9.0305 17.93775 8.99675 17.96875 8.96875 C 17.99575 8.94175 18.012 8.88175 18 8.84375 L 17.90625 8.625 L 17.9375 8.5625 L 18.03125 8.53125 L 18.0625 8.53125 C 18.0745 8.53125 18.08275 8.53525 18.09375 8.53125 C 18.09575 8.53125 18.123 8.501 18.125 8.5 L 18.21875 8.4375 C 18.24875 8.4225 18.27725 8.407 18.28125 8.375 L 18.3125 8.1875 L 18.3125 8.15625 L 18.59375 8.21875 C 18.61375 8.21875 18.64025 8.1985 18.65625 8.1875 L 18.78125 8.09375 z M 20.28125 8.6875 L 20.3125 8.6875 C 20.3355 8.6875 20.358 8.7005 20.375 8.6875 L 20.40625 8.71875 C 20.41225 8.72975 20.39725 8.743 20.40625 8.75 C 20.41525 8.757 20.4215 8.76925 20.4375 8.78125 C 20.4535 8.79325 20.48 8.8105 20.5 8.8125 L 20.625 8.96875 C 20.639 8.98875 20.6635 8.995 20.6875 9 C 20.6995 9.003 20.70675 8.998 20.71875 9 C 20.71975 9.003 20.71675 9.02825 20.71875 9.03125 C 20.74175 9.07225 20.7865 9.10925 20.8125 9.15625 L 20.84375 9.21875 C 20.85175 9.23475 20.859 9.27125 20.875 9.28125 L 20.90625 9.28125 C 20.92325 9.29325 20.94775 9.3125 20.96875 9.3125 L 21.0625 9.3125 C 21.0605 9.3245 21.0615 9.32975 21.0625 9.34375 C 21.0685 9.36575 21.065 9.35575 21.125 9.46875 C 21.161 9.52575 21.1535 9.543 21.5625 9.625 C 21.6795 9.613 21.6985 9.51375 21.6875 9.34375 L 21.71875 9.375 C 21.74275 9.398 21.7785 9.41525 21.8125 9.40625 L 22 9.34375 C 22.014 9.34075 22.01925 9.35275 22.03125 9.34375 L 22.0625 9.34375 C 22.0485 9.36075 22.03525 9.39025 22.03125 9.40625 C 22.02325 9.45325 22.0225 9.49425 22.0625 9.53125 C 22.0725 9.54025 22.1 9.538 22.25 9.625 C 22.257 9.629 22.243 9.65425 22.25 9.65625 L 22.28125 9.65625 C 22.30225 9.66125 22.32375 9.633 22.34375 9.625 C 22.35975 9.618 22.365 9.60475 22.375 9.59375 L 22.4375 9.53125 C 22.4495 9.57225 22.45775 9.61525 22.46875 9.65625 L 22.4375 10.0625 L 22.1875 9.96875 C 22.1455 9.95675 22.11675 9.99625 22.09375 10.03125 L 22 10.125 L 21.625 9.96875 C 21.613 9.96475 21.60575 9.96575 21.59375 9.96875 C 21.53375 9.97075 21.4845 9.96875 21.4375 9.96875 L 21.40625 9.9375 C 21.39025 9.9135 21.37175 9.88 21.34375 9.875 C 21.21575 9.855 21.12825 9.875 21.03125 9.875 C 21.01925 9.875 21.011 9.871 21 9.875 C 20.994 9.877 20.97375 9.872 20.96875 9.875 L 20.875 9.9375 C 20.85 9.9525 20.8175 9.972 20.8125 10 L 20.78125 10.1875 L 20.34375 9.9375 C 20.33875 9.9355 20.3165 9.9395 20.3125 9.9375 L 19.84375 9.8125 L 19.71875 9.75 C 19.72975 9.732 19.71975 9.7095 19.71875 9.6875 C 19.71075 9.5895 19.7005 9.5195 19.6875 9.4375 C 19.6995 9.4725 19.731 9.49325 19.75 9.53125 C 19.76 9.55225 19.76925 9.595 19.78125 9.625 C 19.81625 9.687 19.86 9.6845 19.875 9.6875 C 19.887 9.6905 19.89525 9.6895 19.90625 9.6875 C 19.96825 9.6785 19.99175 9.656 20.09375 9.5 C 20.09975 9.49 20.09175 9.47875 20.09375 9.46875 C 20.09875 9.45175 20.09575 9.4525 20.09375 9.4375 C 20.08975 9.4135 20.10475 9.391 20.09375 9.375 C 20.13875 9.357 20.15325 9.306 20.15625 9.25 L 20.15625 9.09375 C 20.18225 9.08675 20.20675 9.05725 20.21875 9.03125 L 20.3125 8.84375 C 20.3265 8.81675 20.3265 8.777 20.3125 8.75 L 20.28125 8.6875 z M 21.28125 8.96875 C 21.298078 8.9868438 21.33775 8.99625 21.34375 9 L 21.46875 9.21875 C 21.41375 9.21475 21.33625 9.1895 21.28125 9.1875 L 21.28125 9.15625 C 21.30225 9.13725 21.3125 9.12075 21.3125 9.09375 C 21.3125 9.04075 21.28925 9.00375 21.28125 8.96875 z M 3.125 12.03125 C 3.134 12.03925 3.14525 12.0565 3.15625 12.0625 L 3.15625 12.09375 C 3.14425 12.13175 3.13825 12.17025 3.15625 12.28125 C 3.17225 12.32825 3.18075 12.32175 3.21875 12.34375 C 3.24275 12.35775 3.2865 12.35275 3.3125 12.34375 C 3.3195 12.34075 3.33575 12.34775 3.34375 12.34375 C 3.33175 12.45875 3.38475 12.565 3.46875 12.625 C 3.50875 12.652 3.54675 12.6875 3.59375 12.6875 C 3.72975 12.6875 3.82375 12.56225 3.84375 12.40625 C 3.84975 12.35325 3.85975 12.297 3.84375 12.25 L 3.90625 12.3125 C 3.90525 12.3335 3.877 12.32375 3.875 12.34375 L 3.875 12.4375 C 3.881 12.4905 3.92075 12.5405 3.96875 12.5625 L 3.90625 12.5625 C 3.88925 12.5585 3.885 12.5625 3.875 12.5625 C 3.828 12.5725 3.80975 12.5755 3.71875 12.6875 C 3.69575 12.7205 3.6805 12.7735 3.6875 12.8125 C 3.6935 12.8495 3.728 12.861 3.75 12.875 C 3.799 12.917 3.84725 12.968 3.90625 13 L 3.96875 13.03125 C 3.97875 13.03825 4.01925 13.02925 4.03125 13.03125 L 4.03125 13.0625 C 4.04225 13.0645 4.0505 13.0635 4.0625 13.0625 C 4.0705 13.0605 4.08675 13.03425 4.09375 13.03125 L 4.28125 12.96875 C 4.31625 12.94375 4.33975 12.89775 4.34375 12.84375 L 4.34375 12.78125 C 4.38875 12.81325 4.49625 12.828 4.78125 12.875 C 4.78825 12.876 4.8055 12.875 4.8125 12.875 C 4.8165 12.875 4.83975 12.875 4.84375 12.875 C 4.84975 12.875 4.869 12.876 4.875 12.875 L 5.34375 12.875 C 5.36575 12.912 5.41775 12.9355 5.46875 12.9375 L 5.78125 12.9375 C 5.81725 12.9355 5.853 12.92525 5.875 12.90625 C 5.895 12.92325 5.9125 12.94475 5.9375 12.96875 C 5.9635 12.98875 6.00025 13 6.03125 13 C 6.03725 13 6.0565 13.002 6.0625 13 L 6.125 12.96875 L 6.125 13 C 6.131 13.052 6.16875 13.104 6.21875 13.125 C 6.20575 13.146 6.1895 13.1605 6.1875 13.1875 C 6.1875 13.2515 6.21775 13.311 6.21875 13.375 L 6.21875 13.4375 C 6.22875 13.5105 6.2805 13.5505 6.3125 13.5625 L 6.3125 13.625 C 6.2995 13.645 6.28125 13.6585 6.28125 13.6875 C 6.28125 13.7405 6.27825 13.817 6.28125 13.875 C 6.28525 13.913 6.31375 13.94475 6.34375 13.96875 C 6.34475 13.99975 6.34175 14.0315 6.34375 14.0625 C 6.32775 14.0855 6.3145 14.12025 6.3125 14.15625 C 6.3165 14.19825 6.3105 14.23925 6.3125 14.28125 L 6.3125 14.3125 C 6.3195 14.3675 6.3655 14.4275 6.4375 14.4375 L 6.4375 14.5 L 6.25 14.34375 C 6.243 14.33675 6.22775 14.3165 6.21875 14.3125 L 5.875 14.25 C 5.861 14.248 5.8265 14.248 5.8125 14.25 L 5.78125 14.25 L 5.71875 14.28125 L 5.3125 14.1875 L 5.09375 13.90625 C 5.08475 13.89525 5.0755 13.88 5.0625 13.875 L 5.03125 13.875 C 4.99425 13.855 4.93725 13.845 4.90625 13.875 L 4.84375 13.96875 L 4.78125 13.9375 C 4.75425 13.9215 4.74175 13.889 4.71875 13.875 C 4.68875 13.858 4.656 13.858 4.625 13.875 L 4.15625 14.125 C 4.14725 14.13 4.131 14.14825 4.125 14.15625 C 4.117 14.16525 4.09875 14.1775 4.09375 14.1875 L 3.96875 14.53125 L 3.8125 14.4375 C 3.8005 14.4285 3.79725 14.40825 3.78125 14.40625 L 3.75 14.40625 C 3.744 14.40625 3.72375 14.40625 3.71875 14.40625 L 3.4375 14.46875 L 3.34375 14.28125 L 3.375 13.4375 C 3.377 13.4165 3.375 13.394 3.375 13.375 C 3.375 13.357 3.383 13.35875 3.375 13.34375 C 3.327 13.26275 3.2495 13.16775 3.1875 13.09375 L 3.15625 13.0625 C 3.15025 13.0545 3.134 13.03725 3.125 13.03125 C 3.115 13.02525 3.10575 13.002 3.09375 13 L 2.84375 12.96875 L 2.84375 12.75 L 3.125 12.03125 z M 4.34375 12.53125 C 4.34375 12.53725 4.34375 12.5575 4.34375 12.5625 C 4.31975 12.5935 4.3125 12.62125 4.3125 12.65625 C 4.2955 12.63825 4.27 12.63 4.25 12.625 C 4.181 12.604 4.11325 12.5765 4.03125 12.5625 L 4.34375 12.53125 z M 23.53125 12.78125 C 23.58625 12.90425 23.6425 13.016 23.6875 13.125 L 23.6875 13.375 C 23.6765 13.354 23.647 13.35175 23.625 13.34375 L 23.5625 12.9375 L 23.5625 12.90625 L 23.53125 12.78125 z M 1.78125 13.21875 L 1.84375 13.28125 C 1.87375 13.31225 1.93075 13.3325 1.96875 13.3125 L 2.09375 13.21875 L 2.1875 13.46875 C 2.1875 13.47075 2.1875 13.498 2.1875 13.5 C 2.1925 13.51 2.21075 13.52425 2.21875 13.53125 L 2.28125 13.625 C 2.28525 13.633 2.27425 13.65125 2.28125 13.65625 L 2.40625 13.78125 C 2.41225 13.78525 2.46275 13.8085 2.46875 13.8125 L 2.625 13.90625 L 2.875 14.65625 C 2.877 14.66125 2.871 14.6835 2.875 14.6875 L 2.9375 14.75 C 2.9645 14.783 3.0235 14.79925 3.0625 14.78125 L 3.09375 14.75 L 3.1875 14.875 C 3.1945 14.899 3.19675 14.9245 3.21875 14.9375 C 3.23975 14.9505 3.26725 14.96275 3.28125 14.96875 C 3.29325 14.97375 3.3035 14.96675 3.3125 14.96875 L 3.4375 15.15625 C 3.4625 15.19325 3.5185 15.2055 3.5625 15.1875 L 3.6875 15.125 C 3.7085 15.117 3.74 15.0825 3.75 15.0625 L 3.78125 15.15625 C 3.82025 15.42825 3.8815 15.69575 3.9375 15.96875 L 3.90625 16.15625 L 3.84375 16.34375 L 3.78125 16.75 C 3.77925 16.762 3.77925 16.76925 3.78125 16.78125 C 3.78125 16.78325 3.78125 16.8085 3.78125 16.8125 C 3.80625 16.9045 3.81675 17.00475 3.84375 17.09375 L 3.875 17.125 C 3.88 17.14 3.864 17.14425 3.875 17.15625 C 3.883 17.16325 3.9145 17.1675 3.9375 17.1875 L 3.90625 17.21875 C 3.89525 17.23875 3.90125 17.25925 3.90625 17.28125 C 3.90725 17.28925 3.9335 17.3055 3.9375 17.3125 L 4.125 17.75 C 4.129 17.758 4.119 17.77525 4.125 17.78125 L 4.53125 18.125 L 4.71875 18.40625 C 4.72175 18.41225 4.747 18.4335 4.75 18.4375 C 4.759 18.4475 4.75 18.46875 4.75 18.46875 C 5.048 18.85775 5.4845 19.3815 5.5625 19.4375 L 6.125 19.71875 C 6.176 19.75175 6.23025 19.773 6.40625 19.875 L 6.46875 19.9375 C 6.68375 20.2645 6.994 20.73875 7.25 21.09375 C 7.82 21.81475 7.9605 22.024 8.6875 22.75 C 8.6915 22.755 8.71375 22.746 8.71875 22.75 L 8.90625 22.90625 C 8.93325 22.93425 8.973 22.94175 9 22.96875 L 9.03125 23.03125 C 9.03825 23.03825 9.0555 23.02725 9.0625 23.03125 C 9.1005 23.05325 9.1455 23.08375 9.1875 23.09375 C 9.1935 23.13075 9.214 23.138 9.375 23.25 C 9.403 23.271 9.43875 23.28125 9.46875 23.28125 L 9.53125 23.375 C 9.54325 23.391 9.5445 23.39825 9.5625 23.40625 L 9.6875 23.46875 L 9.71875 23.5 C 9.72675 23.511 9.74 23.52325 9.75 23.53125 C 9.805 23.56825 9.8745 23.57275 9.9375 23.59375 L 9.96875 23.625 C 9.97675 23.655 10.00925 23.6705 10.03125 23.6875 C 10.04425 23.6985 10.0545 23.71375 10.0625 23.71875 C 10.0805 23.73075 10.097 23.744 10.125 23.75 L 10.21875 23.8125 C 10.23275 23.8215 10.26625 23.84375 10.28125 23.84375 L 10.3125 23.84375 L 10.34375 23.84375 C 10.34775 23.84675 10.371 23.873 10.375 23.875 L 10.4375 23.875 C 10.4475 23.897 10.475 23.9265 10.5 23.9375 C 5.5757554 22.815421 1.8811123 18.464317 1.78125 13.21875 z M 24.15625 13.90625 C 24.153002 13.947219 24.159935 13.990408 24.15625 14.03125 L 24.125 14.0625 C 24.074 14.0985 24.01875 14.12125 23.96875 14.15625 L 23.9375 14.125 L 23.9375 14.0625 C 23.9475 14.0605 23.96175 14.03425 23.96875 14.03125 C 23.97475 14.02825 23.995 14.03525 24 14.03125 L 24.15625 13.90625 z M 18.78125 16.125 C 18.63825 16.145 18.529 16.248 18.5 16.375 C 18.477 16.479 18.50775 16.567 18.59375 16.625 C 18.63975 16.657 18.692 16.6875 18.75 16.6875 C 18.895 16.6885 19.0265 16.5695 19.0625 16.4375 C 19.0845 16.3615 19.07725 16.28075 19.03125 16.21875 C 18.98325 16.15375 18.9085 16.125 18.8125 16.125 C 18.8085 16.125 18.78625 16.124 18.78125 16.125 z M 23.75 16.1875 C 23.506721 17.012207 23.19667 17.798156 22.78125 18.53125 C 22.76525 18.54125 22.7785 18.54725 22.6875 18.65625 C 22.7045 18.59225 22.651 18.54725 22.625 18.53125 C 22.617 18.52725 22.60275 18.503 22.59375 18.5 C 22.56275 18.491 22.53 18.5 22.5 18.5 L 22.46875 18.5 L 22.5 18.4375 C 22.517 18.4055 22.51525 18.37975 22.53125 18.34375 L 22.5625 18.28125 C 22.5685 18.26825 22.59275 18.265 22.59375 18.25 L 22.59375 18.1875 L 22.71875 17.78125 L 22.75 17.65625 L 22.875 17.4375 L 22.9375 17.375 C 22.9465 17.366 22.96475 17.35375 22.96875 17.34375 C 23.01175 17.24175 23.01525 17.178 23.03125 17.125 L 23.15625 16.90625 L 23.25 16.8125 C 23.267 16.8045 23.27125 16.79625 23.28125 16.78125 L 23.65625 16.21875 L 23.75 16.1875 z M 22.3125 18.90625 C 22.3355 18.92025 22.353 18.90225 22.375 18.90625 C 22.383 18.90925 22.39725 18.90625 22.40625 18.90625 C 22.42325 18.90325 22.45575 18.91625 22.46875 18.90625 C 22.42275 18.96625 22.34425 19.01575 22.28125 19.09375 L 22.125 19.1875 L 22.3125 18.90625 z"/>
</svg>
