<svg xmlns="http://www.w3.org/2000/svg" width="1700" height="1000"><rect width="1700" height="1000" x="0" y="0" fill="#FFFFFF" id="backgorund"/><g transform="translate(20,20)" id="viz"><g id="nodes"><g transform="translate(731,481)"><path id="p_1693" d="M-8.817456953860942e-14,480A480,480,0,1,1,8.817456953860942e-14,-480A480,480,0,1,1,-8.817456953860942e-14,480Z" fill="none" stroke="#ccc"/><text fill="black" text-anchor="middle" font-family="'Arial', sans-serif" font-size="8" dominant-baseline="middle"><textPath href="#p_1693" startOffset="50%"/></text></g><g transform="translate(581.0912381191094,526.5118542701416)" id="Asia"><path id="p_1345.3643640007244" d="M-4.34923400161572e-14,236.7612716114734A236.7612716114734,236.7612716114734,0,1,1,4.34923400161572e-14,-236.7612716114734A236.7612716114734,236.7612716114734,0,1,1,-4.34923400161572e-14,236.7612716114734Z" fill="none" stroke="#ccc"/><text fill="black" text-anchor="middle" font-family="'Arial', sans-serif" font-size="8" dominant-baseline="middle"><textPath href="#p_1345.3643640007244" startOffset="50%">Asia</textPath></text></g><g transform="translate(978.2972742146587,526.5118542701416)" id="Africa"><path id="p_1661.4902499590219" d="M-2.859815806516135e-14,155.68112147422156A155.68112147422156,155.68112147422156,0,1,1,2.859815806516135e-14,-155.68112147422156A155.68112147422156,155.68112147422156,0,1,1,-2.859815806516135e-14,155.68112147422156Z" fill="none" stroke="#ccc"/><text fill="black" text-anchor="middle" font-family="'Arial', sans-serif" font-size="8" dominant-baseline="middle"><textPath href="#p_1661.4902499590219" startOffset="50%">Africa</textPath></text></g><g transform="translate(849.0217340444925,796.2208131976627)" id="Europe"><path id="p_1784.8882169281735" d="M-2.5468796339493564e-14,138.6456696860185A138.6456696860185,138.6456696860185,0,1,1,2.5468796339493564e-14,-138.6456696860185A138.6456696860185,138.6456696860185,0,1,1,-2.5468796339493564e-14,138.6456696860185Z" fill="none" stroke="#ccc"/><text fill="black" text-anchor="middle" font-family="'Arial', sans-serif" font-size="8" dominant-baseline="middle"><textPath href="#p_1784.8882169281735" startOffset="50%">Europe</textPath></text></g><g transform="translate(846.9591324641502,269.0955799487797)" id="South America"><path id="p_1245.5958399097035" d="M-2.361262205215737e-14,128.54112749677375A128.54112749677375,128.54112749677375,0,1,1,2.361262205215737e-14,-128.54112749677375A128.54112749677375,128.54112749677375,0,1,1,-2.361262205215737e-14,128.54112749677375Z" fill="none" stroke="#ccc"/><text fill="black" text-anchor="middle" font-family="'Arial', sans-serif" font-size="8" dominant-baseline="middle"><textPath href="#p_1245.5958399097035" startOffset="50%">South America</textPath></text></g><g transform="translate(609.6582959443124,156.91197556202246)" id="North America"><path id="p_896.7475920196835" d="M-2.3729488813365608e-14,129.17732051334858A129.17732051334858,129.17732051334858,0,1,1,2.3729488813365608e-14,-129.17732051334858A129.17732051334858,129.17732051334858,0,1,1,-2.3729488813365608e-14,129.17732051334858Z" fill="none" stroke="#ccc"/><text fill="black" text-anchor="middle" font-family="'Arial', sans-serif" font-size="8" dominant-baseline="middle"><textPath href="#p_896.7475920196835" startOffset="50%">North America</textPath></text></g><g transform="translate(488.4908047373693,526.5118542701416)" id="China"><path id="p_1155.3998542273898" d="M-2.5606849340421517e-14,139.39719521987894A139.39719521987894,139.39719521987894,0,1,1,2.5606849340421517e-14,-139.39719521987894A139.39719521987894,139.39719521987894,0,1,1,-2.5606849340421517e-14,139.39719521987894Z" fill="none" stroke="#ccc"/><text fill="black" text-anchor="middle" font-family="'Arial', sans-serif" font-size="8" dominant-baseline="middle"><textPath href="#p_1155.3998542273898" startOffset="50%">China</textPath></text></g><g transform="translate(722.8702548439155,526.5118542701416)" id="India"><path id="p_1340.60072099087" d="M-1.657289013876846e-14,90.218611876813A90.218611876813,90.218611876813,0,1,1,1.657289013876846e-14,-90.218611876813A90.218611876813,90.218611876813,0,1,1,-1.657289013876846e-14,90.218611876813Z" fill="none" stroke="#ccc"/><text fill="black" text-anchor="middle" font-family="'Arial', sans-serif" font-size="8" dominant-baseline="middle"><textPath href="#p_1340.60072099087" startOffset="50%">India</textPath></text></g><g transform="translate(642.8513990959735,656.4055973196685)" id="Pakistan"><path id="p_1357.8375212579322" d="M-1.0577370816200337e-14,57.580524842290394A57.580524842290394,57.580524842290394,0,1,1,1.0577370816200337e-14,-57.580524842290394A57.580524842290394,57.580524842290394,0,1,1,-1.0577370816200337e-14,57.580524842290394Z" fill="none" stroke="#ccc"/><text fill="black" text-anchor="middle" font-family="'Arial', sans-serif" font-size="8" dominant-baseline="middle"><textPath href="#p_1357.8375212579322" startOffset="50%">Pakistan</textPath></text></g><g transform="translate(640.1730569375026,413.7967927869551)" id="Japan"><path id="p_1099.7857050779896" d="M-8.232539071463074e-15,44.81585535353208A44.81585535353208,44.81585535353208,0,1,1,8.232539071463074e-15,-44.81585535353208A44.81585535353208,44.81585535353208,0,1,1,-8.232539071463074e-15,44.81585535353208Z" fill="none" stroke="#ccc"/><text fill="black" text-anchor="middle" font-family="'Arial', sans-serif" font-size="8" dominant-baseline="middle"><textPath href="#p_1099.7857050779896" startOffset="50%">Japan</textPath></text></g><g transform="translate(568.3880179486637,361.31019579464265)" id="Indonesia"><path id="p_970.0452844493636" d="M-7.227939629399654e-15,39.34707070605733A39.34707070605733,39.34707070605733,0,1,1,7.227939629399654e-15,-39.34707070605733A39.34707070605733,39.34707070605733,0,1,1,-7.227939629399654e-15,39.34707070605733Z" fill="none" stroke="#ccc"/><text fill="black" text-anchor="middle" font-family="'Arial', sans-serif" font-size="8" dominant-baseline="middle"><textPath href="#p_970.0452844493636" startOffset="50%">Indonesia</textPath></text></g><g transform="translate(906.1786604789248,529.1426423216755)" id="Nigeria"><path id="p_1486.7646788313812" d="M-9.266297849142329e-15,50.44337603078094A50.44337603078094,50.44337603078094,0,1,1,9.266297849142329e-15,-50.44337603078094A50.44337603078094,50.44337603078094,0,1,1,-9.266297849142329e-15,50.44337603078094Z" fill="none" stroke="#ccc"/><text fill="black" text-anchor="middle" font-family="'Arial', sans-serif" font-size="8" dominant-baseline="middle"><textPath href="#p_1486.7646788313812" startOffset="50%">Nigeria</textPath></text></g><g transform="translate(1027.4887461739286,529.1426423216755)" id="Egypt"><path id="p_1623.7344551499725" d="M-1.2142936348814504e-14,66.10306665436865A66.10306665436865,66.10306665436865,0,1,1,1.2142936348814504e-14,-66.10306665436865A66.10306665436865,66.10306665436865,0,1,1,-1.2142936348814504e-14,66.10306665436865Z" fill="none" stroke="#ccc"/><text fill="black" text-anchor="middle" font-family="'Arial', sans-serif" font-size="8" dominant-baseline="middle"><textPath href="#p_1623.7344551499725" startOffset="50%">Egypt</textPath></text></g><g transform="translate(953.9201697754263,608.0275574411593)" id="Democratic Republic of the Congo"><path id="p_1599.9474408114586" d="M-6.7967371234995114e-15,36.99971359487304A36.99971359487304,36.99971359487304,0,1,1,6.7967371234995114e-15,-36.99971359487304A36.99971359487304,36.99971359487304,0,1,1,-6.7967371234995114e-15,36.99971359487304Z" fill="none" stroke="#ccc"/><text fill="black" text-anchor="middle" font-family="'Arial', sans-serif" font-size="8" dominant-baseline="middle"><textPath href="#p_1599.9474408114586" startOffset="50%">Democratic Republic of the Congo</textPath></text></g><g transform="translate(954.5384310076603,456.3201615964537)" id="Somalia"><path id="p_1444.06885506186" d="M-5.9169292227862266e-15,32.21026245774604A32.21026245774604,32.21026245774604,0,1,1,5.9169292227862266e-15,-32.21026245774604A32.21026245774604,32.21026245774604,0,1,1,-5.9169292227862266e-15,32.21026245774604Z" fill="none" stroke="#ccc"/><text fill="black" text-anchor="middle" font-family="'Arial', sans-serif" font-size="8" dominant-baseline="middle"><textPath href="#p_1444.06885506186" startOffset="50%">Somalia</textPath></text></g><g transform="translate(1021.9475071619448,629.398081062745)" id="Sudan"><path id="p_1681.8873360077969" d="M-5.426731029570074e-15,29.541747783107077A29.541747783107077,29.541747783107077,0,1,1,5.426731029570074e-15,-29.541747783107077A29.541747783107077,29.541747783107077,0,1,1,-5.426731029570074e-15,29.541747783107077Z" fill="none" stroke="#ccc"/><text fill="black" text-anchor="middle" font-family="'Arial', sans-serif" font-size="8" dominant-baseline="middle"><textPath href="#p_1681.8873360077969" startOffset="50%">Sudan</textPath></text></g><g transform="translate(1014.7873245037285,430.5262103791503)" id="Angola"><path id="p_1474.8778403071026" d="M-5.247177781146443e-15,28.564305424223715A28.564305424223715,28.564305424223715,0,1,1,5.247177781146443e-15,-28.564305424223715A28.564305424223715,28.564305424223715,0,1,1,-5.247177781146443e-15,28.564305424223715Z" fill="none" stroke="#ccc"/><text fill="black" text-anchor="middle" font-family="'Arial', sans-serif" font-size="8" dominant-baseline="middle"><textPath href="#p_1474.8778403071026" startOffset="50%">Angola</textPath></text></g><g transform="translate(890.5920822412825,447.89159941239)" id="Tanzania"><path id="p_1367.009203943548" d="M-5.056356415073286e-15,27.52552228987557A27.52552228987557,27.52552228987557,0,1,1,5.056356415073286e-15,-27.52552228987557A27.52552228987557,27.52552228987557,0,1,1,-5.056356415073286e-15,27.52552228987557Z" fill="none" stroke="#ccc"/><text fill="black" text-anchor="middle" font-family="'Arial', sans-serif" font-size="8" dominant-baseline="middle"><textPath href="#p_1367.009203943548" startOffset="50%">Tanzania</textPath></text></g><g transform="translate(885.2665960027302,608.5337511366538)" id="Ivory Coast"><path id="p_1521.6924304052188" d="M-4.9399955540863135e-15,26.892083265834856A26.892083265834856,26.892083265834856,0,1,1,4.9399955540863135e-15,-26.892083265834856A26.892083265834856,26.892083265834856,0,1,1,-4.9399955540863135e-15,26.892083265834856Z" fill="none" stroke="#ccc"/><text fill="black" text-anchor="middle" font-family="'Arial', sans-serif" font-size="8" dominant-baseline="middle"><textPath href="#p_1521.6924304052188" startOffset="50%">Ivory Coast</textPath></text></g><g transform="translate(1072.2701195231718,443.65928161030627)" id="South Africa"><path id="p_1542.5654186719325" d="M-4.7092600232030304e-15,25.636017538454357A25.636017538454357,25.636017538454357,0,1,1,4.7092600232030304e-15,-25.636017538454357A25.636017538454357,25.636017538454357,0,1,1,-4.7092600232030304e-15,25.636017538454357Z" fill="none" stroke="#ccc"/><text fill="black" text-anchor="middle" font-family="'Arial', sans-serif" font-size="8" dominant-baseline="middle"><textPath href="#p_1542.5654186719325" startOffset="50%">South Africa</textPath></text></g><g transform="translate(790.9862931965025,802.8633570443043)" id="Russia"><path id="p_1665.1595252701827" d="M-1.2915714510476341e-14,70.3098750293759A70.3098750293759,70.3098750293759,0,1,1,1.2915714510476341e-14,-70.3098750293759A70.3098750293759,70.3098750293759,0,1,1,-1.2915714510476341e-14,70.3098750293759Z" fill="none" stroke="#ccc"/><text fill="black" text-anchor="middle" font-family="'Arial', sans-serif" font-size="8" dominant-baseline="middle"><textPath href="#p_1665.1595252701827" startOffset="50%">Russia</textPath></text></g><g transform="translate(911.6272216783664,802.8633570443043)" id="Turkey"><path id="p_1761.0579891653044" d="M-8.370597501600736e-15,45.567410442633594A45.567410442633594,45.567410442633594,0,1,1,8.370597501600736e-15,-45.567410442633594A45.567410442633594,45.567410442633594,0,1,1,-8.370597501600736e-15,45.567410442633594Z" fill="none" stroke="#ccc"/><text fill="black" text-anchor="middle" font-family="'Arial', sans-serif" font-size="8" dominant-baseline="middle"><textPath href="#p_1761.0579891653044" startOffset="50%">Turkey</textPath></text></g><g transform="translate(871.7244317260742,880.3783439360432)" id="United Kingdom"><path id="p_1789.9543227604458" d="M-6.769519379639389e-15,36.8515470983285A36.8515470983285,36.8515470983285,0,1,1,6.769519379639389e-15,-36.8515470983285A36.8515470983285,36.8515470983285,0,1,1,-6.769519379639389e-15,36.8515470983285Z" fill="none" stroke="#ccc"/><text fill="black" text-anchor="middle" font-family="'Arial', sans-serif" font-size="8" dominant-baseline="middle"><textPath href="#p_1789.9543227604458" startOffset="50%">United Kingdom</textPath></text></g><g transform="translate(869.3608600157245,740.1121876794413)" id="Germany"><path id="p_1635.8001371279945" d="M-4.652510850844832e-15,25.327089432828533A25.327089432828533,25.327089432828533,0,1,1,4.652510850844832e-15,-25.327089432828533A25.327089432828533,25.327089432828533,0,1,1,-4.652510850844832e-15,25.327089432828533Z" fill="none" stroke="#ccc"/><text fill="black" text-anchor="middle" font-family="'Arial', sans-serif" font-size="8" dominant-baseline="middle"><textPath href="#p_1635.8001371279945" startOffset="50%">Germany</textPath></text></g><g transform="translate(824.5844555645189,709.5039003068175)" id="Spain"><path id="p_1559.2359277113562" d="M-4.435836984159189e-15,24.147571840020007A24.147571840020007,24.147571840020007,0,1,1,4.435836984159189e-15,-24.147571840020007A24.147571840020007,24.147571840020007,0,1,1,-4.435836984159189e-15,24.147571840020007Z" fill="none" stroke="#ccc"/><text fill="black" text-anchor="middle" font-family="'Arial', sans-serif" font-size="8" dominant-baseline="middle"><textPath href="#p_1559.2359277113562" startOffset="50%">Spain</textPath></text></g><g transform="translate(809.6395244404506,899.5010850001219)" id="Ukraine"><path id="p_1733.4886007390007" d="M-4.288956421521084e-15,23.347991298428372A23.347991298428372,23.347991298428372,0,1,1,4.288956421521084e-15,-23.347991298428372A23.347991298428372,23.347991298428372,0,1,1,-4.288956421521084e-15,23.347991298428372Z" fill="none" stroke="#ccc"/><text fill="black" text-anchor="middle" font-family="'Arial', sans-serif" font-size="8" dominant-baseline="middle"><textPath href="#p_1733.4886007390007" startOffset="50%">Ukraine</textPath></text></g><g transform="translate(921.7170992807761,729.993111244666)" id="Italy"><path id="p_1675.9446269139828" d="M-4.268093049042486e-15,23.234416388540755A23.234416388540755,23.234416388540755,0,1,1,4.268093049042486e-15,-23.234416388540755A23.234416388540755,23.234416388540755,0,1,1,-4.268093049042486e-15,23.234416388540755Z" fill="none" stroke="#ccc"/><text fill="black" text-anchor="middle" font-family="'Arial', sans-serif" font-size="8" dominant-baseline="middle"><textPath href="#p_1675.9446269139828" startOffset="50%">Italy</textPath></text></g><g transform="translate(933.6756396707763,870.7802829501497)" id="France"><path id="p_1826.531042294213" d="M-3.871436677430746e-15,21.075119673286977A21.075119673286977,21.075119673286977,0,1,1,3.871436677430746e-15,-21.075119673286977A21.075119673286977,21.075119673286977,0,1,1,-3.871436677430746e-15,21.075119673286977Z" fill="none" stroke="#ccc"/><text fill="black" text-anchor="middle" font-family="'Arial', sans-serif" font-size="8" dominant-baseline="middle"><textPath href="#p_1826.531042294213" startOffset="50%">France</textPath></text></g><g transform="translate(775.6995869815642,709.051419929296)" id="Belarus"><path id="p_1505.7267546876903" d="M-3.6694853363204865e-15,19.975747776830158A19.975747776830158,19.975747776830158,0,1,1,3.6694853363204865e-15,-19.975747776830158A19.975747776830158,19.975747776830158,0,1,1,-3.6694853363204865e-15,19.975747776830158Z" fill="none" stroke="#ccc"/><text fill="black" text-anchor="middle" font-family="'Arial', sans-serif" font-size="8" dominant-baseline="middle"><textPath href="#p_1505.7267546876903" startOffset="50%">Belarus</textPath></text></g><g transform="translate(805.497243204355,268.64004551233614)" id="Brazil"><path id="p_1152.8202946445945" d="M-1.427013668366275e-14,77.68300592790332A77.68300592790332,77.68300592790332,0,1,1,1.427013668366275e-14,-77.68300592790332A77.68300592790332,77.68300592790332,0,1,1,-1.427013668366275e-14,77.68300592790332Z" fill="none" stroke="#ccc"/><text fill="black" text-anchor="middle" font-family="'Arial', sans-serif" font-size="8" dominant-baseline="middle"><textPath href="#p_1152.8202946445945" startOffset="50%">Brazil</textPath></text></g><g transform="translate(925.2011065911374,268.64004551233614)" id="Peru"><path id="p_1232.0983665524984" d="M-6.844039263021708e-15,37.25721444902479A37.25721444902479,37.25721444902479,0,1,1,6.844039263021708e-15,-37.25721444902479A37.25721444902479,37.25721444902479,0,1,1,-6.844039263021708e-15,37.25721444902479Z" fill="none" stroke="#ccc"/><text fill="black" text-anchor="middle" font-family="'Arial', sans-serif" font-size="8" dominant-baseline="middle"><textPath href="#p_1232.0983665524984" startOffset="50%">Peru</textPath></text></g><g transform="translate(898.2924371797612,341.1422376751515)" id="Colombia"><path id="p_1275.7484432624885" d="M-6.487034016925269e-15,35.313768407575665A35.313768407575665,35.313768407575665,0,1,1,6.487034016925269e-15,-35.313768407575665A35.313768407575665,35.313768407575665,0,1,1,-6.487034016925269e-15,35.313768407575665Z" fill="none" stroke="#ccc"/><text fill="black" text-anchor="middle" font-family="'Arial', sans-serif" font-size="8" dominant-baseline="middle"><textPath href="#p_1275.7484432624885" startOffset="50%">Colombia</textPath></text></g><g transform="translate(896.6101119231902,202.17553819659105)" id="Chile"><path id="p_1130.117924651351" d="M-5.571948437391862e-15,30.332274531569812A30.332274531569812,30.332274531569812,0,1,1,5.571948437391862e-15,-30.332274531569812A30.332274531569812,30.332274531569812,0,1,1,-5.571948437391862e-15,30.332274531569812Z" fill="none" stroke="#ccc"/><text fill="black" text-anchor="middle" font-family="'Arial', sans-serif" font-size="8" dominant-baseline="middle"><textPath href="#p_1130.117924651351" startOffset="50%">Chile</textPath></text></g><g transform="translate(846.5158461115366,169.84465361274195)" id="Venezuela"><path id="p_1041.8860679508455" d="M-4.505273793890305e-15,24.52556822656705A24.52556822656705,24.52556822656705,0,1,1,4.505273793890305e-15,-24.52556822656705A24.52556822656705,24.52556822656705,0,1,1,-4.505273793890305e-15,24.52556822656705Z" fill="none" stroke="#ccc"/><text fill="black" text-anchor="middle" font-family="'Arial', sans-serif" font-size="8" dominant-baseline="middle"><textPath href="#p_1041.8860679508455" startOffset="50%">Venezuela</textPath></text></g><g transform="translate(840.7439419832573,368.87492589557036)" id="Argentina"><path id="p_1234.4236237329687" d="M-4.372862709188734e-15,23.80475585414119A23.80475585414119,23.80475585414119,0,1,1,4.372862709188734e-15,-23.80475585414119A23.80475585414119,23.80475585414119,0,1,1,-4.372862709188734e-15,23.80475585414119Z" fill="none" stroke="#ccc"/><text fill="black" text-anchor="middle" font-family="'Arial', sans-serif" font-size="8" dominant-baseline="middle"><textPath href="#p_1234.4236237329687" startOffset="50%">Argentina</textPath></text></g><g transform="translate(553.4835863852968,155.23837431521423)" id="United States"><path id="p_777.9360035506281" d="M-1.2530716384994438e-14,68.21404285011707A68.21404285011707,68.21404285011707,0,1,1,1.2530716384994438e-14,-68.21404285011707A68.21404285011707,68.21404285011707,0,1,1,-1.2530716384994438e-14,68.21404285011707Z" fill="none" stroke="#ccc"/><text fill="black" text-anchor="middle" font-family="'Arial', sans-serif" font-size="8" dominant-baseline="middle"><textPath href="#p_777.9360035506281" startOffset="50%">United States</textPath></text></g><g transform="translate(680.2567056694274,155.23837431521423)" id="Mexico"><path id="p_890.290513408801" d="M-9.88206080274617e-15,53.79543342415922A53.79543342415922,53.79543342415922,0,1,1,9.88206080274617e-15,-53.79543342415922A53.79543342415922,53.79543342415922,0,1,1,-9.88206080274617e-15,53.79543342415922Z" fill="none" stroke="#ccc"/><text fill="black" text-anchor="middle" font-family="'Arial', sans-serif" font-size="8" dominant-baseline="middle"><textPath href="#p_890.290513408801" startOffset="50%">Mexico</textPath></text></g><g transform="translate(628.8870818763554,239.22096361165706)" id="Canada"><path id="p_908.9964858006226" d="M-7.327387612772731e-15,39.8884403126101A39.8884403126101,39.8884403126101,0,1,1,7.327387612772731e-15,-39.8884403126101A39.8884403126101,39.8884403126101,0,1,1,-7.327387612772731e-15,39.8884403126101Z" fill="none" stroke="#ccc"/><text fill="black" text-anchor="middle" font-family="'Arial', sans-serif" font-size="8" dominant-baseline="middle"><textPath href="#p_908.9964858006226" startOffset="50%">Canada</textPath></text></g><g transform="translate(626.6954090299625,96.92643693376681)" id="Cuba"><path id="p_745.240383404337" d="M-3.787563881960988e-15,20.61853744060757A20.61853744060757,20.61853744060757,0,1,1,3.787563881960988e-15,-20.61853744060757A20.61853744060757,20.61853744060757,0,1,1,-3.787563881960988e-15,20.61853744060757Z" fill="none" stroke="#ccc"/><text fill="black" text-anchor="middle" font-family="'Arial', sans-serif" font-size="8" dominant-baseline="middle"><textPath href="#p_745.240383404337" startOffset="50%">Cuba</textPath></text></g><g transform="translate(463.5613586782488,529.7505837326136)" id="Shanghai"><path id="p_1047.9725493590424" d="M-9.857293580908925e-15,53.66060694817999A53.66060694817999,53.66060694817999,0,1,1,9.857293580908925e-15,-53.66060694817999A53.66060694817999,53.66060694817999,0,1,1,-9.857293580908925e-15,53.66060694817999Z" fill="#ff7f0e" stroke="none"/></g><g transform="translate(572.5237882664953,529.7505837326136)" id="Beijing"><path id="p_1153.8125516293212" d="M-9.283712987831011e-15,50.53817963021226A50.53817963021226,50.53817963021226,0,1,1,9.283712987831011e-15,-50.53817963021226A50.53817963021226,50.53817963021226,0,1,1,-9.283712987831011e-15,50.53817963021226Z" fill="#ff7f0e" stroke="none"/></g><g transform="translate(520.8892805090883,612.7849472906653)" id="Tianjin"><path id="p_1177.1518913663574" d="M-7.803020208314915e-15,42.47766356660376A42.47766356660376,42.47766356660376,0,1,1,7.803020208314915e-15,-42.47766356660376A42.47766356660376,42.47766356660376,0,1,1,-7.803020208314915e-15,42.47766356660376Z" fill="#ff7f0e" stroke="none"/></g><g transform="translate(520.8012293995713,450.4148827728676)" id="Guangzhou"><path id="p_1011.6210820158931" d="M-7.238575528392627e-15,39.40496984345421A39.40496984345421,39.40496984345421,0,1,1,7.238575528392627e-15,-39.40496984345421A39.40496984345421,39.40496984345421,0,1,1,-7.238575528392627e-15,39.40496984345421Z" fill="#ff7f0e" stroke="none"/></g><g transform="translate(442.2775467558063,438.52640376516825)" id="Shenzhen"><path id="p_917.0538787588698" d="M-6.475306768006847e-15,35.24992823789525A35.24992823789525,35.24992823789525,0,1,1,6.475306768006847e-15,-35.24992823789525A35.24992823789525,35.24992823789525,0,1,1,-6.475306768006847e-15,35.24992823789525Z" fill="#ff7f0e" stroke="none"/></g><g transform="translate(682.0566590423715,526.5118542701416)" id="Delhi"><path id="p_1254.2098863779277" d="M-8.20048719511545e-15,44.641373065414726A44.641373065414726,44.641373065414726,0,1,1,8.20048719511545e-15,-44.641373065414726A44.641373065414726,44.641373065414726,0,1,1,-8.20048719511545e-15,44.641373065414726Z" fill="#ff7f0e" stroke="none"/></g><g transform="translate(769.8934494142574,526.5118542701416)" id="Mumbai"><path id="p_1335.8370779810157" d="M-7.059802406685796e-15,38.43177429661682A38.43177429661682,38.43177429661682,0,1,1,7.059802406685796e-15,-38.43177429661682A38.43177429661682,38.43177429661682,0,1,1,-7.059802406685796e-15,38.43177429661682Z" fill="#ff7f0e" stroke="none"/></g><g transform="translate(642.8513990959735,656.4055973196685)" id="Karachi"><path id="p_1353.073878248078" d="M-9.702303791555524e-15,52.816881832436074A52.816881832436074,52.816881832436074,0,1,1,9.702303791555524e-15,-52.816881832436074A52.816881832436074,52.816881832436074,0,1,1,-9.702303791555524e-15,52.816881832436074Z" fill="#ff7f0e" stroke="none"/></g><g transform="translate(640.1730569375026,413.7967927869551)" id="Tokyo"><path id="p_1095.0220620681355" d="M-7.357472046818263e-15,40.052212343677766A40.052212343677766,40.052212343677766,0,1,1,7.357472046818263e-15,-40.052212343677766A40.052212343677766,40.052212343677766,0,1,1,-7.357472046818263e-15,40.052212343677766Z" fill="#ff7f0e" stroke="none"/></g><g transform="translate(568.3880179486637,361.31019579464265)" id="Jakarta"><path id="p_965.2816414395093" d="M-6.3528726047548415e-15,34.58342769620302A34.58342769620302,34.58342769620302,0,1,1,6.3528726047548415e-15,-34.58342769620302A34.58342769620302,34.58342769620302,0,1,1,-6.3528726047548415e-15,34.58342769620302Z" fill="#ff7f0e" stroke="none"/></g><g transform="translate(906.1786604789248,529.1426423216755)" id="Lagos"><path id="p_1482.0010358215268" d="M-8.391230824497516e-15,45.67973302092662A45.67973302092662,45.67973302092662,0,1,1,8.391230824497516e-15,-45.67973302092662A45.67973302092662,45.67973302092662,0,1,1,-8.391230824497516e-15,45.67973302092662Z" fill="#1f77b4" stroke="none"/></g><g transform="translate(1002.2865566395208,529.1426423216755)" id="Cairo"><path id="p_1568.5664330713025" d="M-6.638302212447074e-15,36.13723411010652A36.13723411010652,36.13723411010652,0,1,1,6.638302212447074e-15,-36.13723411010652A36.13723411010652,36.13723411010652,0,1,1,-6.638302212447074e-15,36.13723411010652Z" fill="#1f77b4" stroke="none"/></g><g transform="translate(1066.0078017889623,529.1426423216755)" id="Alexandria"><path id="p_1618.9708121401184" d="M-4.1920335994002114e-15,22.820368029480655A22.820368029480655,22.820368029480655,0,1,1,4.1920335994002114e-15,-22.820368029480655A22.820368029480655,22.820368029480655,0,1,1,-4.1920335994002114e-15,22.820368029480655Z" fill="#1f77b4" stroke="none"/></g><g transform="translate(953.9201697754263,608.0275574411593)" id="Kinshasa-Brazzaville"><path id="p_1595.1837978016042" d="M-5.9216700988546984e-15,32.23607058501872A32.23607058501872,32.23607058501872,0,1,1,5.9216700988546984e-15,-32.23607058501872A32.23607058501872,32.23607058501872,0,1,1,-5.9216700988546984e-15,32.23607058501872Z" fill="#1f77b4" stroke="none"/></g><g transform="translate(954.5384310076603,456.3201615964537)" id="Mogadishu"><path id="p_1439.3052120520056" d="M-5.0418621981414136e-15,27.446619447891724A27.446619447891724,27.446619447891724,0,1,1,5.0418621981414136e-15,-27.446619447891724A27.446619447891724,27.446619447891724,0,1,1,-5.0418621981414136e-15,27.446619447891724Z" fill="#1f77b4" stroke="none"/></g><g transform="translate(1021.9475071619448,629.398081062745)" id="Khartoum-Omdurman"><path id="p_1677.1236929979427" d="M-4.551664004925262e-15,24.77810477325276A24.77810477325276,24.77810477325276,0,1,1,4.551664004925262e-15,-24.77810477325276A24.77810477325276,24.77810477325276,0,1,1,-4.551664004925262e-15,24.77810477325276Z" fill="#1f77b4" stroke="none"/></g><g transform="translate(1014.7873245037285,430.5262103791503)" id="Luanda"><path id="p_1470.1141972972482" d="M-4.37211075650163e-15,23.8006624143694A23.8006624143694,23.8006624143694,0,1,1,4.37211075650163e-15,-23.8006624143694A23.8006624143694,23.8006624143694,0,1,1,-4.37211075650163e-15,23.8006624143694Z" fill="#1f77b4" stroke="none"/></g><g transform="translate(890.5920822412825,447.89159941239)" id="Dar es Salaam"><path id="p_1362.2455609336937" d="M-4.181289390428474e-15,22.761879280021255A22.761879280021255,22.761879280021255,0,1,1,4.181289390428474e-15,-22.761879280021255A22.761879280021255,22.761879280021255,0,1,1,-4.181289390428474e-15,22.761879280021255Z" fill="#1f77b4" stroke="none"/></g><g transform="translate(885.2665960027302,608.5337511366538)" id="Abidjan"><path id="p_1516.9287873953647" d="M-4.064928529441501e-15,22.128440255980543A22.128440255980543,22.128440255980543,0,1,1,4.064928529441501e-15,-22.128440255980543A22.128440255980543,22.128440255980543,0,1,1,-4.064928529441501e-15,22.128440255980543Z" fill="#1f77b4" stroke="none"/></g><g transform="translate(1072.2701195231718,443.65928161030627)" id="Greater Johannesburg"><path id="p_1537.8017756620782" d="M-3.834192998558218e-15,20.872374528600044A20.872374528600044,20.872374528600044,0,1,1,3.834192998558218e-15,-20.872374528600044A20.872374528600044,20.872374528600044,0,1,1,-3.834192998558218e-15,20.872374528600044Z" fill="#1f77b4" stroke="none"/></g><g transform="translate(763.6980894890368,802.8633570443043)" id="Moscow"><path id="p_1605.8194748453968" d="M-7.0278857871071964e-15,38.25802831205582A38.25802831205582,38.25802831205582,0,1,1,7.0278857871071964e-15,-38.25802831205582A38.25802831205582,38.25802831205582,0,1,1,-7.0278857871071964e-15,38.25802831205582Z" fill="#2ca02c" stroke="none"/></g><g transform="translate(831.6261430134855,802.8633570443043)" id="Saint Petersburg"><path id="p_1660.3958822603286" d="M-4.575228186401928e-15,24.906382202538616A24.906382202538616,24.906382202538616,0,1,1,4.575228186401928e-15,-24.906382202538616A24.906382202538616,24.906382202538616,0,1,1,-4.575228186401928e-15,24.906382202538616Z" fill="#2ca02c" stroke="none"/></g><g transform="translate(911.6272216783664,802.8633570443043)" id="Istanbul"><path id="p_1756.29434615545" d="M-7.495530476955924e-15,40.80376743277928A40.80376743277928,40.80376743277928,0,1,1,7.495530476955924e-15,-40.80376743277928A40.80376743277928,40.80376743277928,0,1,1,-7.495530476955924e-15,40.80376743277928Z" fill="#2ca02c" stroke="none"/></g><g transform="translate(871.7244317260742,880.3783439360432)" id="London"><path id="p_1785.1906797505917" d="M-5.894452354994577e-15,32.08790408847419A32.08790408847419,32.08790408847419,0,1,1,5.894452354994577e-15,-32.08790408847419A32.08790408847419,32.08790408847419,0,1,1,-5.894452354994577e-15,32.08790408847419Z" fill="#2ca02c" stroke="none"/></g><g transform="translate(869.3608600157245,740.1121876794413)" id="Berlin"><path id="p_1631.0364941181401" d="M-3.77744382620002e-15,20.56344642297422A20.56344642297422,20.56344642297422,0,1,1,3.77744382620002e-15,-20.56344642297422A20.56344642297422,20.56344642297422,0,1,1,-3.77744382620002e-15,20.56344642297422Z" fill="#2ca02c" stroke="none"/></g><g transform="translate(824.5844555645189,709.5039003068175)" id="Madrid"><path id="p_1554.4722847015018" d="M-3.560769959514378e-15,19.383928830165697A19.383928830165697,19.383928830165697,0,1,1,3.560769959514378e-15,-19.383928830165697A19.383928830165697,19.383928830165697,0,1,1,-3.560769959514378e-15,19.383928830165697Z" fill="#2ca02c" stroke="none"/></g><g transform="translate(809.6395244404506,899.5010850001219)" id="Kiev"><path id="p_1728.7249577291466" d="M-3.4138893968762726e-15,18.584348288574063A18.584348288574063,18.584348288574063,0,1,1,3.4138893968762726e-15,-18.584348288574063A18.584348288574063,18.584348288574063,0,1,1,-3.4138893968762726e-15,18.584348288574063Z" fill="#2ca02c" stroke="none"/></g><g transform="translate(921.7170992807761,729.993111244666)" id="Rome"><path id="p_1671.1809839041287" d="M-3.3930260243976737e-15,18.47077337868644A18.47077337868644,18.47077337868644,0,1,1,3.3930260243976737e-15,-18.47077337868644A18.47077337868644,18.47077337868644,0,1,1,-3.3930260243976737e-15,18.47077337868644Z" fill="#2ca02c" stroke="none"/></g><g transform="translate(933.6756396707763,870.7802829501497)" id="Paris"><path id="p_1821.7673992843586" d="M-2.996369652785934e-15,16.311476663432664A16.311476663432664,16.311476663432664,0,1,1,2.996369652785934e-15,-16.311476663432664A16.311476663432664,16.311476663432664,0,1,1,-2.996369652785934e-15,16.311476663432664Z" fill="#2ca02c" stroke="none"/></g><g transform="translate(775.6995869815642,709.051419929296)" id="Minsk"><path id="p_1500.9631116778362" d="M-2.794418311675674e-15,15.212104766975845A15.212104766975845,15.212104766975845,0,1,1,2.794418311675674e-15,-15.212104766975845A15.212104766975845,15.212104766975845,0,1,1,-2.794418311675674e-15,15.212104766975845Z" fill="#2ca02c" stroke="none"/></g><g transform="translate(779.7666797941262,276.7802540000645)" id="São Paulo"><path id="p_1095.2386959495182" d="M-6.923864381661797e-15,37.69176215532762A37.69176215532762,37.69176215532762,0,1,1,6.923864381661797e-15,-37.69176215532762A37.69176215532762,37.69176215532762,0,1,1,-6.923864381661797e-15,37.69176215532762Z" fill="#9467bd" stroke="none"/></g><g transform="translate(849.9497567065004,276.7802540000645)" id="Rio de Janeiro"><path id="p_1155.4576824537571" d="M-5.0934906679511095e-15,27.727671747192176A27.727671747192176,27.727671747192176,0,1,1,5.0934906679511095e-15,-27.727671747192176A27.727671747192176,27.727671747192176,0,1,1,-5.0934906679511095e-15,27.727671747192176Z" fill="#9467bd" stroke="none"/></g><g transform="translate(822.8221427111572,320.0999569351943)" id="Salvador"><path id="p_1162.5434457813797" d="M-3.420685791011593e-15,18.621346135028254A18.621346135028254,18.621346135028254,0,1,1,3.420685791011593e-15,-18.621346135028254A18.621346135028254,18.621346135028254,0,1,1,-3.420685791011593e-15,18.621346135028254Z" fill="#9467bd" stroke="none"/></g><g transform="translate(822.819309749163,233.48587192209354)" id="Brasília"><path id="p_1075.9065735524205" d="M-3.41702025404294e-15,18.601391881163902A18.601391881163902,18.601391881163902,0,1,1,3.41702025404294e-15,-18.601391881163902A18.601391881163902,18.601391881163902,0,1,1,-3.41702025404294e-15,18.601391881163902Z" fill="#9467bd" stroke="none"/></g><g transform="translate(785.3641528828915,217.04821232462842)" id="Fortaleza"><path id="p_1020.9506972796154" d="M-3.221739335171257e-15,17.53833207209544A17.53833207209544,17.53833207209544,0,1,1,3.221739335171257e-15,-17.53833207209544A17.53833207209544,17.53833207209544,0,1,1,-3.221739335171257e-15,17.53833207209544Z" fill="#9467bd" stroke="none"/></g><g transform="translate(925.2011065911374,268.64004551233614)" id="Lima"><path id="p_1227.334723542644" d="M-5.968972238376896e-15,32.49357143917047A32.49357143917047,32.49357143917047,0,1,1,5.968972238376896e-15,-32.49357143917047A32.49357143917047,32.49357143917047,0,1,1,-5.968972238376896e-15,32.49357143917047Z" fill="#9467bd" stroke="none"/></g><g transform="translate(898.2924371797612,341.1422376751515)" id="Bogotá"><path id="p_1270.9848002526342" d="M-5.6119669922804566e-15,30.55012539772135A30.55012539772135,30.55012539772135,0,1,1,5.6119669922804566e-15,-30.55012539772135A30.55012539772135,30.55012539772135,0,1,1,-5.6119669922804566e-15,30.55012539772135Z" fill="#9467bd" stroke="none"/></g><g transform="translate(896.6101119231902,202.17553819659105)" id="Santiago"><path id="p_1125.3542816414968" d="M-4.69688141274705e-15,25.568631521715496A25.568631521715496,25.568631521715496,0,1,1,4.69688141274705e-15,-25.568631521715496A25.568631521715496,25.568631521715496,0,1,1,-4.69688141274705e-15,25.568631521715496Z" fill="#9467bd" stroke="none"/></g><g transform="translate(846.5158461115366,169.84465361274195)" id="Caracas"><path id="p_1037.1224249409913" d="M-3.6302067692454925e-15,19.761925216712736A19.761925216712736,19.761925216712736,0,1,1,3.6302067692454925e-15,-19.761925216712736A19.761925216712736,19.761925216712736,0,1,1,-3.6302067692454925e-15,19.761925216712736Z" fill="#9467bd" stroke="none"/></g><g transform="translate(840.7439419832573,368.87492589557036)" id="Buenos Aires"><path id="p_1229.6599807231144" d="M-3.497795684543921e-15,19.041112844286875A19.041112844286875,19.041112844286875,0,1,1,3.497795684543921e-15,-19.041112844286875A19.041112844286875,19.041112844286875,0,1,1,-3.497795684543921e-15,19.041112844286875Z" fill="#9467bd" stroke="none"/></g><g transform="translate(531.4001843832287,158.51402775099945)" id="New York City"><path id="p_722.7732143376908" d="M-5.852403760874852e-15,31.859002203462655A31.859002203462655,31.859002203462655,0,1,1,5.852403760874852e-15,-31.859002203462655A31.859002203462655,31.859002203462655,0,1,1,-5.852403760874852e-15,31.859002203462655Z" fill="#d62728" stroke="none"/></g><g transform="translate(589.7366904466662,158.51402775099945)" id="Los Angeles"><path id="p_770.9645790477862" d="M-3.9887715280846576e-15,21.713860850120465A21.713860850120465,21.713860850120465,0,1,1,3.9887715280846576e-15,-21.713860850120465A21.713860850120465,21.713860850120465,0,1,1,-3.9887715280846576e-15,21.713860850120465Z" fill="#d62728" stroke="none"/></g><g transform="translate(569.1804725932111,197.92331105674623)" id="Chicago"><path id="p_786.0745610065978" d="M-3.3011782451999313e-15,17.970777356640518A17.970777356640518,17.970777356640518,0,1,1,3.3011782451999313e-15,-17.970777356640518A17.970777356640518,17.970777356640518,0,1,1,-3.3011782451999313e-15,17.970777356640518Z" fill="#d62728" stroke="none"/></g><g transform="translate(568.9264254126421,120.89947344925434)" id="Houston"><path id="p_707.335856268031" d="M-3.0328299737222903e-15,16.50995740613465A16.50995740613465,16.50995740613465,0,1,1,3.0328299737222903e-15,-16.50995740613465A16.50995740613465,16.50995740613465,0,1,1,-3.0328299737222903e-15,16.50995740613465Z" fill="#d62728" stroke="none"/></g><g transform="translate(536.2921899182785,108.48937830584734)" id="Philadelphia"><path id="p_659.4222025522924" d="M-2.5057438752492982e-15,13.640634328166536A13.640634328166536,13.640634328166536,0,1,1,2.5057438752492982e-15,-13.640634328166536A13.640634328166536,13.640634328166536,0,1,1,-2.5057438752492982e-15,13.640634328166536Z" fill="#d62728" stroke="none"/></g><g transform="translate(663.7627358649022,155.23837431521423)" id="Mexico City"><path id="p_852.5389307898962" d="M-5.977100679149618e-15,32.53782060977967A32.53782060977967,32.53782060977967,0,1,1,5.977100679149618e-15,-32.53782060977967A32.53782060977967,32.53782060977967,0,1,1,-5.977100679149618e-15,32.53782060977967Z" fill="#d62728" stroke="none"/></g><g transform="translate(715.1763477841342,155.23837431521423)" id="Ecatepec de Morelos"><path id="p_885.5268703989465" d="M-2.592359586629333e-15,14.112148299598081A14.112148299598081,14.112148299598081,0,1,1,2.592359586629333e-15,-14.112148299598081A14.112148299598081,14.112148299598081,0,1,1,-2.592359586629333e-15,14.112148299598081Z" fill="#d62728" stroke="none"/></g><g transform="translate(612.0796566891166,239.22096361165706)" id="Toronto"><path id="p_870.6179924162908" d="M-3.364846669508833e-15,18.31737211551701A18.31737211551701,18.31737211551701,0,1,1,3.364846669508833e-15,-18.31737211551701A18.31737211551701,18.31737211551701,0,1,1,-3.364846669508833e-15,18.31737211551701Z" fill="#d62728" stroke="none"/></g><g transform="translate(649.5862754967995,239.22096361165706)" id="Montreal"><path id="p_904.2328427907681" d="M-2.6499404062966792e-15,14.42560368231162A14.42560368231162,14.42560368231162,0,1,1,2.6499404062966792e-15,-14.42560368231162A14.42560368231162,14.42560368231162,0,1,1,-2.6499404062966792e-15,14.42560368231162Z" fill="#d62728" stroke="none"/></g><g transform="translate(626.6954090299625,96.92643693376681)" id="Havana"><path id="p_740.4767403944826" d="M-2.9124968573161765e-15,15.854894430753262A15.854894430753262,15.854894430753262,0,1,1,2.9124968573161765e-15,-15.854894430753262A15.854894430753262,15.854894430753262,0,1,1,-2.9124968573161765e-15,15.854894430753262Z" fill="#d62728" stroke="none"/></g></g><g id="labels"><g transform="translate(463.5613586782488,529.7505837326136)"><text text-anchor="middle" dominant-baseline="text-before-edge" transform="translate(0,-5.55224609375)"><tspan x="0" y="0" dy="0" style="font-family: Arial, sans-serif; font-size: 10px; fill: black; font-weight: bold;">Shanghai</tspan></text></g><g transform="translate(572.5237882664953,529.7505837326136)"><text text-anchor="middle" dominant-baseline="text-before-edge" transform="translate(0,-5.55224609375)"><tspan x="0" y="0" dy="0" style="font-family: Arial, sans-serif; font-size: 10px; fill: black; font-weight: bold;">Beijing</tspan></text></g><g transform="translate(520.8892805090883,612.7849472906653)"><text text-anchor="middle" dominant-baseline="text-before-edge" transform="translate(0,-5.55224609375)"><tspan x="0" y="0" dy="0" style="font-family: Arial, sans-serif; font-size: 10px; fill: black; font-weight: bold;">Tianjin</tspan></text></g><g transform="translate(520.8012293995713,450.4148827728676)"><text text-anchor="middle" dominant-baseline="text-before-edge" transform="translate(0,-5.55224609375)"><tspan x="0" y="0" dy="0" style="font-family: Arial, sans-serif; font-size: 10px; fill: black; font-weight: bold;">Guangzhou</tspan></text></g><g transform="translate(442.2775467558063,438.52640376516825)"><text text-anchor="middle" dominant-baseline="text-before-edge" transform="translate(0,-5.55224609375)"><tspan x="0" y="0" dy="0" style="font-family: Arial, sans-serif; font-size: 10px; fill: black; font-weight: bold;">Shenzhen</tspan></text></g><g transform="translate(682.0566590423715,526.5118542701416)"><text text-anchor="middle" dominant-baseline="text-before-edge" transform="translate(0,-5.55224609375)"><tspan x="0" y="0" dy="0" style="font-family: Arial, sans-serif; font-size: 10px; fill: black; font-weight: bold;">Delhi</tspan></text></g><g transform="translate(769.8934494142574,526.5118542701416)"><text text-anchor="middle" dominant-baseline="text-before-edge" transform="translate(0,-5.55224609375)"><tspan x="0" y="0" dy="0" style="font-family: Arial, sans-serif; font-size: 10px; fill: black; font-weight: bold;">Mumbai</tspan></text></g><g transform="translate(642.8513990959735,656.4055973196685)"><text text-anchor="middle" dominant-baseline="text-before-edge" transform="translate(0,-5.55224609375)"><tspan x="0" y="0" dy="0" style="font-family: Arial, sans-serif; font-size: 10px; fill: black; font-weight: bold;">Karachi</tspan></text></g><g transform="translate(640.1730569375026,413.7967927869551)"><text text-anchor="middle" dominant-baseline="text-before-edge" transform="translate(0,-5.55224609375)"><tspan x="0" y="0" dy="0" style="font-family: Arial, sans-serif; font-size: 10px; fill: black; font-weight: bold;">Tokyo</tspan></text></g><g transform="translate(568.3880179486637,361.31019579464265)"><text text-anchor="middle" dominant-baseline="text-before-edge" transform="translate(0,-5.55224609375)"><tspan x="0" y="0" dy="0" style="font-family: Arial, sans-serif; font-size: 10px; fill: black; font-weight: bold;">Jakarta</tspan></text></g><g transform="translate(906.1786604789248,529.1426423216755)"><text text-anchor="middle" dominant-baseline="text-before-edge" transform="translate(0,-5.55224609375)"><tspan x="0" y="0" dy="0" style="font-family: Arial, sans-serif; font-size: 10px; fill: black; font-weight: bold;">Lagos</tspan></text></g><g transform="translate(1002.2865566395208,529.1426423216755)"><text text-anchor="middle" dominant-baseline="text-before-edge" transform="translate(0,-5.55224609375)"><tspan x="0" y="0" dy="0" style="font-family: Arial, sans-serif; font-size: 10px; fill: black; font-weight: bold;">Cairo</tspan></text></g><g transform="translate(1066.0078017889623,529.1426423216755)"><text text-anchor="middle" dominant-baseline="text-before-edge" transform="translate(0,-5.55224609375)"><tspan x="0" y="0" dy="0" style="font-family: Arial, sans-serif; font-size: 10px; fill: black; font-weight: bold;">Alexandria</tspan></text></g><g transform="translate(953.9201697754263,608.0275574411593)"><text text-anchor="middle" dominant-baseline="text-before-edge" transform="translate(0,-5.55224609375)"><tspan x="0" y="0" dy="0" style="font-family: Arial, sans-serif; font-size: 10px; fill: black; font-weight: bold;">Kinshasa-Brazzaville</tspan></text></g><g transform="translate(954.5384310076603,456.3201615964537)"><text text-anchor="middle" dominant-baseline="text-before-edge" transform="translate(0,-5.55224609375)"><tspan x="0" y="0" dy="0" style="font-family: Arial, sans-serif; font-size: 10px; fill: black; font-weight: bold;">Mogadishu</tspan></text></g><g transform="translate(1021.9475071619448,629.398081062745)"><text text-anchor="middle" dominant-baseline="text-before-edge" transform="translate(0,-5.55224609375)"><tspan x="0" y="0" dy="0" style="font-family: Arial, sans-serif; font-size: 10px; fill: black; font-weight: bold;">Khartoum-Omdurman</tspan></text></g><g transform="translate(1014.7873245037285,430.5262103791503)"><text text-anchor="middle" dominant-baseline="text-before-edge" transform="translate(0,-5.55224609375)"><tspan x="0" y="0" dy="0" style="font-family: Arial, sans-serif; font-size: 10px; fill: black; font-weight: bold;">Luanda</tspan></text></g><g transform="translate(890.5920822412825,447.89159941239)"><text text-anchor="middle" dominant-baseline="text-before-edge" transform="translate(0,-5.55224609375)"><tspan x="0" y="0" dy="0" style="font-family: Arial, sans-serif; font-size: 10px; fill: black; font-weight: bold;">Dar es Salaam</tspan></text></g><g transform="translate(885.2665960027302,608.5337511366538)"><text text-anchor="middle" dominant-baseline="text-before-edge" transform="translate(0,-5.55224609375)"><tspan x="0" y="0" dy="0" style="font-family: Arial, sans-serif; font-size: 10px; fill: black; font-weight: bold;">Abidjan</tspan></text></g><g transform="translate(1072.2701195231718,443.65928161030627)"><text text-anchor="middle" dominant-baseline="text-before-edge" transform="translate(0,-5.55224609375)"><tspan x="0" y="0" dy="0" style="font-family: Arial, sans-serif; font-size: 10px; fill: black; font-weight: bold;">Greater Johannesburg</tspan></text></g><g transform="translate(763.6980894890368,802.8633570443043)"><text text-anchor="middle" dominant-baseline="text-before-edge" transform="translate(0,-5.55224609375)"><tspan x="0" y="0" dy="0" style="font-family: Arial, sans-serif; font-size: 10px; fill: black; font-weight: bold;">Moscow</tspan></text></g><g transform="translate(831.6261430134855,802.8633570443043)"><text text-anchor="middle" dominant-baseline="text-before-edge" transform="translate(0,-5.55224609375)"><tspan x="0" y="0" dy="0" style="font-family: Arial, sans-serif; font-size: 10px; fill: black; font-weight: bold;">Saint Petersburg</tspan></text></g><g transform="translate(911.6272216783664,802.8633570443043)"><text text-anchor="middle" dominant-baseline="text-before-edge" transform="translate(0,-5.55224609375)"><tspan x="0" y="0" dy="0" style="font-family: Arial, sans-serif; font-size: 10px; fill: black; font-weight: bold;">Istanbul</tspan></text></g><g transform="translate(871.7244317260742,880.3783439360432)"><text text-anchor="middle" dominant-baseline="text-before-edge" transform="translate(0,-5.55224609375)"><tspan x="0" y="0" dy="0" style="font-family: Arial, sans-serif; font-size: 10px; fill: black; font-weight: bold;">London</tspan></text></g><g transform="translate(869.3608600157245,740.1121876794413)"><text text-anchor="middle" dominant-baseline="text-before-edge" transform="translate(0,-5.55224609375)"><tspan x="0" y="0" dy="0" style="font-family: Arial, sans-serif; font-size: 10px; fill: black; font-weight: bold;">Berlin</tspan></text></g><g transform="translate(824.5844555645189,709.5039003068175)"><text text-anchor="middle" dominant-baseline="text-before-edge" transform="translate(0,-5.55224609375)"><tspan x="0" y="0" dy="0" style="font-family: Arial, sans-serif; font-size: 10px; fill: black; font-weight: bold;">Madrid</tspan></text></g><g transform="translate(809.6395244404506,899.5010850001219)"><text text-anchor="middle" dominant-baseline="text-before-edge" transform="translate(0,-5.55224609375)"><tspan x="0" y="0" dy="0" style="font-family: Arial, sans-serif; font-size: 10px; fill: black; font-weight: bold;">Kiev</tspan></text></g><g transform="translate(921.7170992807761,729.993111244666)"><text text-anchor="middle" dominant-baseline="text-before-edge" transform="translate(0,-5.55224609375)"><tspan x="0" y="0" dy="0" style="font-family: Arial, sans-serif; font-size: 10px; fill: black; font-weight: bold;">Rome</tspan></text></g><g transform="translate(933.6756396707763,870.7802829501497)"><text text-anchor="middle" dominant-baseline="text-before-edge" transform="translate(0,-5.55224609375)"><tspan x="0" y="0" dy="0" style="font-family: Arial, sans-serif; font-size: 10px; fill: black; font-weight: bold;">Paris</tspan></text></g><g transform="translate(775.6995869815642,709.051419929296)"><text text-anchor="middle" dominant-baseline="text-before-edge" transform="translate(0,-5.55224609375)"><tspan x="0" y="0" dy="0" style="font-family: Arial, sans-serif; font-size: 10px; fill: black; font-weight: bold;">Minsk</tspan></text></g><g transform="translate(779.7666797941262,276.7802540000645)"><text text-anchor="middle" dominant-baseline="text-before-edge" transform="translate(0,-5.55224609375)"><tspan x="0" y="0" dy="0" style="font-family: Arial, sans-serif; font-size: 10px; fill: black; font-weight: bold;">São Paulo</tspan></text></g><g transform="translate(849.9497567065004,276.7802540000645)"><text text-anchor="middle" dominant-baseline="text-before-edge" transform="translate(0,-5.55224609375)"><tspan x="0" y="0" dy="0" style="font-family: Arial, sans-serif; font-size: 10px; fill: black; font-weight: bold;">Rio de Janeiro</tspan></text></g><g transform="translate(822.8221427111572,320.0999569351943)"><text text-anchor="middle" dominant-baseline="text-before-edge" transform="translate(0,-5.55224609375)"><tspan x="0" y="0" dy="0" style="font-family: Arial, sans-serif; font-size: 10px; fill: black; font-weight: bold;">Salvador</tspan></text></g><g transform="translate(822.819309749163,233.48587192209354)"><text text-anchor="middle" dominant-baseline="text-before-edge" transform="translate(0,-5.55224609375)"><tspan x="0" y="0" dy="0" style="font-family: Arial, sans-serif; font-size: 10px; fill: black; font-weight: bold;">Brasília</tspan></text></g><g transform="translate(785.3641528828915,217.04821232462842)"><text text-anchor="middle" dominant-baseline="text-before-edge" transform="translate(0,-5.55224609375)"><tspan x="0" y="0" dy="0" style="font-family: Arial, sans-serif; font-size: 10px; fill: black; font-weight: bold;">Fortaleza</tspan></text></g><g transform="translate(925.2011065911374,268.64004551233614)"><text text-anchor="middle" dominant-baseline="text-before-edge" transform="translate(0,-5.55224609375)"><tspan x="0" y="0" dy="0" style="font-family: Arial, sans-serif; font-size: 10px; fill: black; font-weight: bold;">Lima</tspan></text></g><g transform="translate(898.2924371797612,341.1422376751515)"><text text-anchor="middle" dominant-baseline="text-before-edge" transform="translate(0,-5.55224609375)"><tspan x="0" y="0" dy="0" style="font-family: Arial, sans-serif; font-size: 10px; fill: black; font-weight: bold;">Bogotá</tspan></text></g><g transform="translate(896.6101119231902,202.17553819659105)"><text text-anchor="middle" dominant-baseline="text-before-edge" transform="translate(0,-5.55224609375)"><tspan x="0" y="0" dy="0" style="font-family: Arial, sans-serif; font-size: 10px; fill: black; font-weight: bold;">Santiago</tspan></text></g><g transform="translate(846.5158461115366,169.84465361274195)"><text text-anchor="middle" dominant-baseline="text-before-edge" transform="translate(0,-5.55224609375)"><tspan x="0" y="0" dy="0" style="font-family: Arial, sans-serif; font-size: 10px; fill: black; font-weight: bold;">Caracas</tspan></text></g><g transform="translate(840.7439419832573,368.87492589557036)"><text text-anchor="middle" dominant-baseline="text-before-edge" transform="translate(0,-5.55224609375)"><tspan x="0" y="0" dy="0" style="font-family: Arial, sans-serif; font-size: 10px; fill: black; font-weight: bold;">Buenos Aires</tspan></text></g><g transform="translate(531.4001843832287,158.51402775099945)"><text text-anchor="middle" dominant-baseline="text-before-edge" transform="translate(0,-5.55224609375)"><tspan x="0" y="0" dy="0" style="font-family: Arial, sans-serif; font-size: 10px; fill: black; font-weight: bold;">New York City</tspan></text></g><g transform="translate(589.7366904466662,158.51402775099945)"><text text-anchor="middle" dominant-baseline="text-before-edge" transform="translate(0,-5.55224609375)"><tspan x="0" y="0" dy="0" style="font-family: Arial, sans-serif; font-size: 10px; fill: black; font-weight: bold;">Los Angeles</tspan></text></g><g transform="translate(569.1804725932111,197.92331105674623)"><text text-anchor="middle" dominant-baseline="text-before-edge" transform="translate(0,-5.55224609375)"><tspan x="0" y="0" dy="0" style="font-family: Arial, sans-serif; font-size: 10px; fill: black; font-weight: bold;">Chicago</tspan></text></g><g transform="translate(568.9264254126421,120.89947344925434)"><text text-anchor="middle" dominant-baseline="text-before-edge" transform="translate(0,-5.55224609375)"><tspan x="0" y="0" dy="0" style="font-family: Arial, sans-serif; font-size: 10px; fill: black; font-weight: bold;">Houston</tspan></text></g><g transform="translate(536.2921899182785,108.48937830584734)"><text text-anchor="middle" dominant-baseline="text-before-edge" transform="translate(0,-5.55224609375)"><tspan x="0" y="0" dy="0" style="font-family: Arial, sans-serif; font-size: 10px; fill: black; font-weight: bold;">Philadelphia</tspan></text></g><g transform="translate(663.7627358649022,155.23837431521423)"><text text-anchor="middle" dominant-baseline="text-before-edge" transform="translate(0,-5.55224609375)"><tspan x="0" y="0" dy="0" style="font-family: Arial, sans-serif; font-size: 10px; fill: black; font-weight: bold;">Mexico City</tspan></text></g><g transform="translate(715.1763477841342,155.23837431521423)"><text text-anchor="middle" dominant-baseline="text-before-edge" transform="translate(0,-5.55224609375)"><tspan x="0" y="0" dy="0" style="font-family: Arial, sans-serif; font-size: 10px; fill: black; font-weight: bold;">Ecatepec de Morelos</tspan></text></g><g transform="translate(612.0796566891166,239.22096361165706)"><text text-anchor="middle" dominant-baseline="text-before-edge" transform="translate(0,-5.55224609375)"><tspan x="0" y="0" dy="0" style="font-family: Arial, sans-serif; font-size: 10px; fill: black; font-weight: bold;">Toronto</tspan></text></g><g transform="translate(649.5862754967995,239.22096361165706)"><text text-anchor="middle" dominant-baseline="text-before-edge" transform="translate(0,-5.55224609375)"><tspan x="0" y="0" dy="0" style="font-family: Arial, sans-serif; font-size: 10px; fill: black; font-weight: bold;">Montreal</tspan></text></g><g transform="translate(626.6954090299625,96.92643693376681)"><text text-anchor="middle" dominant-baseline="text-before-edge" transform="translate(0,-5.55224609375)"><tspan x="0" y="0" dy="0" style="font-family: Arial, sans-serif; font-size: 10px; fill: black; font-weight: bold;">Havana</tspan></text></g></g></g><g id="legend" transform="translate(1500,20)"><g transform="translate(5,0)"><g class="legendSize" transform="translate(0,0)"><g class="legendCells" transform="translate(50,15.5)"><g class="cell" transform="translate(0, 25)"><circle class="swatch" r="25" fill="none" stroke="#ccc"/><text class="label" transform="translate( 55,&#10;          5)" font-family="&quot;Arial&quot;, sans-serif" font-size="10px"><tspan x="0" dy="0em">5265048.3</tspan></text></g><g class="cell" transform="translate(0, 125)"><circle class="swatch" r="50" fill="none" stroke="#ccc"/><text class="label" transform="translate( 55,&#10;          5)" font-family="&quot;Arial&quot;, sans-serif" font-size="10px"><tspan x="0" dy="0em">21060193.4</tspan></text></g></g><text class="legendTitle" font-family="&quot;Arial&quot;, sans-serif" font-size="12px" font-weight="bold"><tspan x="0" dy="0em">Population [mean]</tspan></text></g><g class="legendColor" transform="translate(0,223)"><g class="legendCells" transform="translate(0,15.5)"><g class="cell" transform="translate(0, 0)"><rect class="swatch" height="15" width="15" style="fill: rgb(31, 119, 180);"/><text class="label" transform="translate( 20, 12.5)" font-family="&quot;Arial&quot;, sans-serif" font-size="10px"><tspan x="0" dy="0em">Africa</tspan></text></g><g class="cell" transform="translate(0, 20.5)"><rect class="swatch" height="15" width="15" style="fill: rgb(255, 127, 14);"/><text class="label" transform="translate( 20, 12.5)" font-family="&quot;Arial&quot;, sans-serif" font-size="10px"><tspan x="0" dy="0em">Asia</tspan></text></g><g class="cell" transform="translate(0, 41)"><rect class="swatch" height="15" width="15" style="fill: rgb(44, 160, 44);"/><text class="label" transform="translate( 20, 12.5)" font-family="&quot;Arial&quot;, sans-serif" font-size="10px"><tspan x="0" dy="0em">Europe</tspan></text></g><g class="cell" transform="translate(0, 61.5)"><rect class="swatch" height="15" width="15" style="fill: rgb(214, 39, 40);"/><text class="label" transform="translate( 20, 12.5)" font-family="&quot;Arial&quot;, sans-serif" font-size="10px"><tspan x="0" dy="0em">North America</tspan></text></g><g class="cell" transform="translate(0, 82)"><rect class="swatch" height="15" width="15" style="fill: rgb(148, 103, 189);"/><text class="label" transform="translate( 20, 12.5)" font-family="&quot;Arial&quot;, sans-serif" font-size="10px"><tspan x="0" dy="0em">South America</tspan></text></g></g><text class="legendTitle" font-family="&quot;Arial&quot;, sans-serif" font-size="12px" font-weight="bold"><tspan x="0" dy="0em">Continent [csvDistinct]</tspan></text></g></g></g></svg>